<mxfile host="Electron" modified="2023-04-30T18:13:05.101Z" agent="Mozilla/5.0 (Windows NT 10.0; Win64; x64) AppleWebKit/537.36 (KHTML, like Gecko) draw.io/21.1.2 Chrome/106.0.5249.199 Electron/21.4.3 Safari/537.36" etag="GqINVUNlLEuVSVhIYRus" version="21.1.2" type="device">
  <diagram name="Page-1" id="3U5Ua5spTuMa1RJWN-em">
    <mxGraphModel dx="3585" dy="2090" grid="1" gridSize="10" guides="1" tooltips="1" connect="1" arrows="1" fold="1" page="1" pageScale="1" pageWidth="5000" pageHeight="5000" math="0" shadow="0">
      <root>
        <mxCell id="0" />
        <mxCell id="1" parent="0" />
        <mxCell id="qQ-AOpVeRItCW9Icub0a-2" value="Engineer" style="html=1;dashed=0;whiteSpace=wrap;" vertex="1" parent="1">
          <mxGeometry x="690" y="1160" width="100" height="50" as="geometry" />
        </mxCell>
        <mxCell id="qQ-AOpVeRItCW9Icub0a-3" value="Send Tool Request" style="html=1;dashed=0;whiteSpace=wrap;shape=mxgraph.dfd.start" vertex="1" parent="1">
          <mxGeometry x="450" y="1145" width="150" height="80" as="geometry" />
        </mxCell>
        <mxCell id="qQ-AOpVeRItCW9Icub0a-4" value="Send Employee Request" style="html=1;dashed=0;whiteSpace=wrap;shape=mxgraph.dfd.start" vertex="1" parent="1">
          <mxGeometry x="465" y="329.44" width="150" height="80" as="geometry" />
        </mxCell>
        <mxCell id="qQ-AOpVeRItCW9Icub0a-5" value="Send Maintenance Request" style="html=1;dashed=0;whiteSpace=wrap;shape=mxgraph.dfd.start" vertex="1" parent="1">
          <mxGeometry x="475" y="439.44" width="150" height="80" as="geometry" />
        </mxCell>
        <mxCell id="qQ-AOpVeRItCW9Icub0a-6" value="" style="endArrow=classic;html=1;rounded=0;exitX=0;exitY=1;exitDx=0;exitDy=0;entryX=0;entryY=0;entryDx=138.28;entryDy=68.28;entryPerimeter=0;" edge="1" parent="1" source="qQ-AOpVeRItCW9Icub0a-2" target="qQ-AOpVeRItCW9Icub0a-3">
          <mxGeometry width="50" height="50" relative="1" as="geometry">
            <mxPoint x="610" y="1165" as="sourcePoint" />
            <mxPoint x="660" y="1115" as="targetPoint" />
          </mxGeometry>
        </mxCell>
        <mxCell id="qQ-AOpVeRItCW9Icub0a-47" value="Request" style="edgeLabel;html=1;align=center;verticalAlign=middle;resizable=0;points=[];" vertex="1" connectable="0" parent="qQ-AOpVeRItCW9Icub0a-6">
          <mxGeometry x="-0.1279" y="2" relative="1" as="geometry">
            <mxPoint as="offset" />
          </mxGeometry>
        </mxCell>
        <mxCell id="qQ-AOpVeRItCW9Icub0a-7" value="Tool Request Management" style="html=1;dashed=0;whiteSpace=wrap;shape=mxgraph.dfd.start" vertex="1" parent="1">
          <mxGeometry x="910" y="1145" width="150" height="80" as="geometry" />
        </mxCell>
        <mxCell id="qQ-AOpVeRItCW9Icub0a-9" value="Industry Development Department" style="html=1;dashed=0;whiteSpace=wrap;" vertex="1" parent="1">
          <mxGeometry x="1190" y="1145" width="100" height="50" as="geometry" />
        </mxCell>
        <mxCell id="qQ-AOpVeRItCW9Icub0a-10" value="" style="endArrow=classic;html=1;rounded=0;exitX=0;exitY=0;exitDx=138.28;exitDy=11.720000000000002;exitPerimeter=0;entryX=0;entryY=0.25;entryDx=0;entryDy=0;" edge="1" parent="1" source="qQ-AOpVeRItCW9Icub0a-7" target="qQ-AOpVeRItCW9Icub0a-9">
          <mxGeometry width="50" height="50" relative="1" as="geometry">
            <mxPoint x="1020" y="1395" as="sourcePoint" />
            <mxPoint x="1070" y="1345" as="targetPoint" />
          </mxGeometry>
        </mxCell>
        <mxCell id="qQ-AOpVeRItCW9Icub0a-54" value="Request" style="edgeLabel;html=1;align=center;verticalAlign=middle;resizable=0;points=[];" vertex="1" connectable="0" parent="qQ-AOpVeRItCW9Icub0a-10">
          <mxGeometry x="-0.2733" relative="1" as="geometry">
            <mxPoint as="offset" />
          </mxGeometry>
        </mxCell>
        <mxCell id="qQ-AOpVeRItCW9Icub0a-11" value="" style="endArrow=classic;html=1;rounded=0;entryX=0.999;entryY=0.43;entryDx=0;entryDy=0;entryPerimeter=0;exitX=0;exitY=0.75;exitDx=0;exitDy=0;" edge="1" parent="1" source="qQ-AOpVeRItCW9Icub0a-9" target="qQ-AOpVeRItCW9Icub0a-7">
          <mxGeometry width="50" height="50" relative="1" as="geometry">
            <mxPoint x="1020" y="1395" as="sourcePoint" />
            <mxPoint x="1070" y="1345" as="targetPoint" />
          </mxGeometry>
        </mxCell>
        <mxCell id="qQ-AOpVeRItCW9Icub0a-55" value="Request&lt;br style=&quot;border-color: var(--border-color);&quot;&gt;Validation" style="edgeLabel;html=1;align=center;verticalAlign=middle;resizable=0;points=[];" vertex="1" connectable="0" parent="qQ-AOpVeRItCW9Icub0a-11">
          <mxGeometry x="0.1915" relative="1" as="geometry">
            <mxPoint as="offset" />
          </mxGeometry>
        </mxCell>
        <mxCell id="qQ-AOpVeRItCW9Icub0a-12" value="Specialized Tool Company" style="html=1;dashed=0;whiteSpace=wrap;" vertex="1" parent="1">
          <mxGeometry x="1170" y="1280" width="100" height="50" as="geometry" />
        </mxCell>
        <mxCell id="qQ-AOpVeRItCW9Icub0a-13" value="" style="endArrow=classic;html=1;rounded=0;exitX=0;exitY=0;exitDx=0;exitDy=0;entryX=0;entryY=0;entryDx=138.28;entryDy=68.28;entryPerimeter=0;" edge="1" parent="1" source="qQ-AOpVeRItCW9Icub0a-12" target="qQ-AOpVeRItCW9Icub0a-7">
          <mxGeometry width="50" height="50" relative="1" as="geometry">
            <mxPoint x="1020" y="1405" as="sourcePoint" />
            <mxPoint x="1070" y="1355" as="targetPoint" />
          </mxGeometry>
        </mxCell>
        <mxCell id="qQ-AOpVeRItCW9Icub0a-56" value="Request" style="edgeLabel;html=1;align=center;verticalAlign=middle;resizable=0;points=[];" vertex="1" connectable="0" parent="qQ-AOpVeRItCW9Icub0a-13">
          <mxGeometry x="0.1729" relative="1" as="geometry">
            <mxPoint as="offset" />
          </mxGeometry>
        </mxCell>
        <mxCell id="qQ-AOpVeRItCW9Icub0a-14" value="" style="endArrow=classic;html=1;rounded=0;entryX=0;entryY=1;entryDx=0;entryDy=0;exitX=0.694;exitY=1.027;exitDx=0;exitDy=0;exitPerimeter=0;" edge="1" parent="1" source="qQ-AOpVeRItCW9Icub0a-7" target="qQ-AOpVeRItCW9Icub0a-12">
          <mxGeometry width="50" height="50" relative="1" as="geometry">
            <mxPoint x="1020" y="1405" as="sourcePoint" />
            <mxPoint x="1070" y="1355" as="targetPoint" />
          </mxGeometry>
        </mxCell>
        <mxCell id="qQ-AOpVeRItCW9Icub0a-57" value="Request&lt;br style=&quot;border-color: var(--border-color);&quot;&gt;Validation" style="edgeLabel;html=1;align=center;verticalAlign=middle;resizable=0;points=[];" vertex="1" connectable="0" parent="qQ-AOpVeRItCW9Icub0a-14">
          <mxGeometry x="-0.1945" relative="1" as="geometry">
            <mxPoint as="offset" />
          </mxGeometry>
        </mxCell>
        <mxCell id="qQ-AOpVeRItCW9Icub0a-15" value="Financial Department" style="html=1;dashed=0;whiteSpace=wrap;" vertex="1" parent="1">
          <mxGeometry x="1110" y="1045" width="100" height="50" as="geometry" />
        </mxCell>
        <mxCell id="qQ-AOpVeRItCW9Icub0a-16" value="" style="endArrow=classic;html=1;rounded=0;exitX=0;exitY=1;exitDx=0;exitDy=0;entryX=0.85;entryY=0.038;entryDx=0;entryDy=0;entryPerimeter=0;" edge="1" parent="1" source="qQ-AOpVeRItCW9Icub0a-15" target="qQ-AOpVeRItCW9Icub0a-7">
          <mxGeometry width="50" height="50" relative="1" as="geometry">
            <mxPoint x="980" y="1345" as="sourcePoint" />
            <mxPoint x="1030" y="1295" as="targetPoint" />
          </mxGeometry>
        </mxCell>
        <mxCell id="qQ-AOpVeRItCW9Icub0a-53" value="Request &lt;br&gt;Validation" style="edgeLabel;html=1;align=center;verticalAlign=middle;resizable=0;points=[];" vertex="1" connectable="0" parent="qQ-AOpVeRItCW9Icub0a-16">
          <mxGeometry x="0.3482" y="-1" relative="1" as="geometry">
            <mxPoint as="offset" />
          </mxGeometry>
        </mxCell>
        <mxCell id="qQ-AOpVeRItCW9Icub0a-17" value="" style="endArrow=classic;html=1;rounded=0;exitX=0.7;exitY=-0.035;exitDx=0;exitDy=0;exitPerimeter=0;entryX=0;entryY=0.5;entryDx=0;entryDy=0;" edge="1" parent="1" source="qQ-AOpVeRItCW9Icub0a-7" target="qQ-AOpVeRItCW9Icub0a-15">
          <mxGeometry width="50" height="50" relative="1" as="geometry">
            <mxPoint x="980" y="1345" as="sourcePoint" />
            <mxPoint x="1030" y="1295" as="targetPoint" />
          </mxGeometry>
        </mxCell>
        <mxCell id="qQ-AOpVeRItCW9Icub0a-52" value="Request" style="edgeLabel;html=1;align=center;verticalAlign=middle;resizable=0;points=[];" vertex="1" connectable="0" parent="qQ-AOpVeRItCW9Icub0a-17">
          <mxGeometry x="-0.1226" relative="1" as="geometry">
            <mxPoint as="offset" />
          </mxGeometry>
        </mxCell>
        <mxCell id="qQ-AOpVeRItCW9Icub0a-18" value="Company Manager" style="html=1;dashed=0;whiteSpace=wrap;" vertex="1" parent="1">
          <mxGeometry x="780" y="1035" width="100" height="50" as="geometry" />
        </mxCell>
        <mxCell id="qQ-AOpVeRItCW9Icub0a-19" value="" style="endArrow=classic;html=1;rounded=0;exitX=0;exitY=0;exitDx=11.719999999999999;exitDy=11.720000000000002;exitPerimeter=0;entryX=0.25;entryY=1;entryDx=0;entryDy=0;" edge="1" parent="1" source="qQ-AOpVeRItCW9Icub0a-7" target="qQ-AOpVeRItCW9Icub0a-18">
          <mxGeometry width="50" height="50" relative="1" as="geometry">
            <mxPoint x="1100" y="1125" as="sourcePoint" />
            <mxPoint x="1150" y="1075" as="targetPoint" />
          </mxGeometry>
        </mxCell>
        <mxCell id="qQ-AOpVeRItCW9Icub0a-50" value="Request" style="edgeLabel;html=1;align=center;verticalAlign=middle;resizable=0;points=[];" vertex="1" connectable="0" parent="qQ-AOpVeRItCW9Icub0a-19">
          <mxGeometry x="0.3238" y="-1" relative="1" as="geometry">
            <mxPoint as="offset" />
          </mxGeometry>
        </mxCell>
        <mxCell id="qQ-AOpVeRItCW9Icub0a-20" value="" style="endArrow=classic;html=1;rounded=0;exitX=0.75;exitY=1;exitDx=0;exitDy=0;entryX=0.2;entryY=-0.015;entryDx=0;entryDy=0;entryPerimeter=0;" edge="1" parent="1" source="qQ-AOpVeRItCW9Icub0a-18" target="qQ-AOpVeRItCW9Icub0a-7">
          <mxGeometry width="50" height="50" relative="1" as="geometry">
            <mxPoint x="1100" y="1125" as="sourcePoint" />
            <mxPoint x="1150" y="1075" as="targetPoint" />
          </mxGeometry>
        </mxCell>
        <mxCell id="qQ-AOpVeRItCW9Icub0a-51" value="Request &lt;br&gt;Validation" style="edgeLabel;html=1;align=center;verticalAlign=middle;resizable=0;points=[];" vertex="1" connectable="0" parent="qQ-AOpVeRItCW9Icub0a-20">
          <mxGeometry x="-0.3884" y="2" relative="1" as="geometry">
            <mxPoint x="28" y="14" as="offset" />
          </mxGeometry>
        </mxCell>
        <mxCell id="qQ-AOpVeRItCW9Icub0a-21" value="Manage Employee Request" style="html=1;dashed=0;whiteSpace=wrap;shape=mxgraph.dfd.start" vertex="1" parent="1">
          <mxGeometry x="675" y="329.44" width="150" height="80" as="geometry" />
        </mxCell>
        <mxCell id="qQ-AOpVeRItCW9Icub0a-22" value="" style="endArrow=classic;html=1;rounded=0;exitX=1;exitY=0.5;exitDx=0;exitDy=0;exitPerimeter=0;entryX=0;entryY=0.5;entryDx=0;entryDy=0;entryPerimeter=0;" edge="1" parent="1" source="qQ-AOpVeRItCW9Icub0a-4" target="qQ-AOpVeRItCW9Icub0a-21">
          <mxGeometry width="50" height="50" relative="1" as="geometry">
            <mxPoint x="435" y="169.44" as="sourcePoint" />
            <mxPoint x="485" y="119.44" as="targetPoint" />
          </mxGeometry>
        </mxCell>
        <mxCell id="qQ-AOpVeRItCW9Icub0a-23" value="Employee" style="html=1;dashed=0;whiteSpace=wrap;" vertex="1" parent="1">
          <mxGeometry x="325" y="404.44" width="100" height="50" as="geometry" />
        </mxCell>
        <mxCell id="qQ-AOpVeRItCW9Icub0a-25" value="" style="endArrow=classic;html=1;rounded=0;exitX=1;exitY=0;exitDx=0;exitDy=0;entryX=0;entryY=0.5;entryDx=0;entryDy=0;entryPerimeter=0;" edge="1" parent="1" source="qQ-AOpVeRItCW9Icub0a-23">
          <mxGeometry width="50" height="50" relative="1" as="geometry">
            <mxPoint x="315" y="239.44" as="sourcePoint" />
            <mxPoint x="465" y="369.44" as="targetPoint" />
          </mxGeometry>
        </mxCell>
        <mxCell id="qQ-AOpVeRItCW9Icub0a-26" value="" style="endArrow=classic;html=1;rounded=0;exitX=0;exitY=0.5;exitDx=0;exitDy=0;exitPerimeter=0;entryX=1;entryY=0.5;entryDx=0;entryDy=0;" edge="1" parent="1" source="qQ-AOpVeRItCW9Icub0a-7" target="qQ-AOpVeRItCW9Icub0a-2">
          <mxGeometry width="50" height="50" relative="1" as="geometry">
            <mxPoint x="910" y="1345" as="sourcePoint" />
            <mxPoint x="960" y="1295" as="targetPoint" />
          </mxGeometry>
        </mxCell>
        <mxCell id="qQ-AOpVeRItCW9Icub0a-48" value="Request Validation" style="edgeLabel;html=1;align=center;verticalAlign=middle;resizable=0;points=[];" vertex="1" connectable="0" parent="qQ-AOpVeRItCW9Icub0a-26">
          <mxGeometry x="0.0604" y="-2" relative="1" as="geometry">
            <mxPoint as="offset" />
          </mxGeometry>
        </mxCell>
        <mxCell id="qQ-AOpVeRItCW9Icub0a-27" value="Lab Technician" style="html=1;dashed=0;whiteSpace=wrap;" vertex="1" parent="1">
          <mxGeometry x="310" y="1055" width="100" height="50" as="geometry" />
        </mxCell>
        <mxCell id="qQ-AOpVeRItCW9Icub0a-28" value="" style="endArrow=classic;html=1;rounded=0;exitX=1;exitY=1;exitDx=0;exitDy=0;entryX=0;entryY=0;entryDx=11.719999999999999;entryDy=11.720000000000002;entryPerimeter=0;" edge="1" parent="1" source="qQ-AOpVeRItCW9Icub0a-27" target="qQ-AOpVeRItCW9Icub0a-3">
          <mxGeometry width="50" height="50" relative="1" as="geometry">
            <mxPoint x="850" y="1345" as="sourcePoint" />
            <mxPoint x="900" y="1295" as="targetPoint" />
          </mxGeometry>
        </mxCell>
        <mxCell id="qQ-AOpVeRItCW9Icub0a-46" value="Request" style="edgeLabel;html=1;align=center;verticalAlign=middle;resizable=0;points=[];" vertex="1" connectable="0" parent="qQ-AOpVeRItCW9Icub0a-28">
          <mxGeometry x="-0.3789" y="-2" relative="1" as="geometry">
            <mxPoint as="offset" />
          </mxGeometry>
        </mxCell>
        <mxCell id="qQ-AOpVeRItCW9Icub0a-29" value="" style="endArrow=classic;html=1;rounded=0;exitX=0.017;exitY=0.217;exitDx=0;exitDy=0;exitPerimeter=0;entryX=1;entryY=0.5;entryDx=0;entryDy=0;" edge="1" parent="1" source="qQ-AOpVeRItCW9Icub0a-7" target="qQ-AOpVeRItCW9Icub0a-27">
          <mxGeometry width="50" height="50" relative="1" as="geometry">
            <mxPoint x="910" y="1345" as="sourcePoint" />
            <mxPoint x="960" y="1295" as="targetPoint" />
          </mxGeometry>
        </mxCell>
        <mxCell id="qQ-AOpVeRItCW9Icub0a-49" value="Request Validation" style="edgeLabel;html=1;align=center;verticalAlign=middle;resizable=0;points=[];" vertex="1" connectable="0" parent="qQ-AOpVeRItCW9Icub0a-29">
          <mxGeometry x="0.2576" y="1" relative="1" as="geometry">
            <mxPoint as="offset" />
          </mxGeometry>
        </mxCell>
        <mxCell id="qQ-AOpVeRItCW9Icub0a-30" value="" style="endArrow=classic;html=1;rounded=0;exitX=1;exitY=1;exitDx=0;exitDy=0;entryX=0;entryY=0.5;entryDx=0;entryDy=0;entryPerimeter=0;" edge="1" parent="1" source="qQ-AOpVeRItCW9Icub0a-23">
          <mxGeometry width="50" height="50" relative="1" as="geometry">
            <mxPoint x="485" y="409.44" as="sourcePoint" />
            <mxPoint x="475" y="479.44000000000005" as="targetPoint" />
          </mxGeometry>
        </mxCell>
        <mxCell id="qQ-AOpVeRItCW9Icub0a-31" value="" style="endArrow=classic;html=1;rounded=0;exitX=1;exitY=0.5;exitDx=0;exitDy=0;exitPerimeter=0;entryX=0;entryY=0.5;entryDx=0;entryDy=0;entryPerimeter=0;" edge="1" parent="1" source="qQ-AOpVeRItCW9Icub0a-5" target="qQ-AOpVeRItCW9Icub0a-35">
          <mxGeometry width="50" height="50" relative="1" as="geometry">
            <mxPoint x="725" y="459.44" as="sourcePoint" />
            <mxPoint x="775" y="409.44" as="targetPoint" />
          </mxGeometry>
        </mxCell>
        <mxCell id="qQ-AOpVeRItCW9Icub0a-32" value="Department" style="html=1;dashed=0;whiteSpace=wrap;" vertex="1" parent="1">
          <mxGeometry x="905" y="344.44" width="100" height="50" as="geometry" />
        </mxCell>
        <mxCell id="qQ-AOpVeRItCW9Icub0a-33" value="" style="endArrow=classic;html=1;rounded=0;exitX=0;exitY=0;exitDx=138.28;exitDy=11.720000000000002;exitPerimeter=0;entryX=0;entryY=0.25;entryDx=0;entryDy=0;" edge="1" parent="1" source="qQ-AOpVeRItCW9Icub0a-21" target="qQ-AOpVeRItCW9Icub0a-32">
          <mxGeometry width="50" height="50" relative="1" as="geometry">
            <mxPoint x="925" y="399.44" as="sourcePoint" />
            <mxPoint x="975" y="349.44" as="targetPoint" />
          </mxGeometry>
        </mxCell>
        <mxCell id="qQ-AOpVeRItCW9Icub0a-34" value="" style="endArrow=classic;html=1;rounded=0;exitX=0;exitY=0.75;exitDx=0;exitDy=0;entryX=0;entryY=0;entryDx=138.28;entryDy=68.28;entryPerimeter=0;" edge="1" parent="1" source="qQ-AOpVeRItCW9Icub0a-32" target="qQ-AOpVeRItCW9Icub0a-21">
          <mxGeometry width="50" height="50" relative="1" as="geometry">
            <mxPoint x="925" y="399.44" as="sourcePoint" />
            <mxPoint x="975" y="349.44" as="targetPoint" />
          </mxGeometry>
        </mxCell>
        <mxCell id="qQ-AOpVeRItCW9Icub0a-35" value="Manage Maintenance Request" style="html=1;dashed=0;whiteSpace=wrap;shape=mxgraph.dfd.start" vertex="1" parent="1">
          <mxGeometry x="675" y="439.44" width="150" height="80" as="geometry" />
        </mxCell>
        <mxCell id="qQ-AOpVeRItCW9Icub0a-36" value="Maintenance Department" style="html=1;dashed=0;whiteSpace=wrap;" vertex="1" parent="1">
          <mxGeometry x="905" y="454.44" width="100" height="50" as="geometry" />
        </mxCell>
        <mxCell id="qQ-AOpVeRItCW9Icub0a-37" value="" style="endArrow=classic;html=1;rounded=0;exitX=0;exitY=0;exitDx=138.28;exitDy=11.720000000000002;exitPerimeter=0;entryX=0;entryY=0.25;entryDx=0;entryDy=0;" edge="1" source="qQ-AOpVeRItCW9Icub0a-35" target="qQ-AOpVeRItCW9Icub0a-36" parent="1">
          <mxGeometry width="50" height="50" relative="1" as="geometry">
            <mxPoint x="925" y="509.44" as="sourcePoint" />
            <mxPoint x="975" y="459.44" as="targetPoint" />
          </mxGeometry>
        </mxCell>
        <mxCell id="qQ-AOpVeRItCW9Icub0a-38" value="" style="endArrow=classic;html=1;rounded=0;exitX=0;exitY=0.75;exitDx=0;exitDy=0;entryX=0;entryY=0;entryDx=138.28;entryDy=68.28;entryPerimeter=0;" edge="1" source="qQ-AOpVeRItCW9Icub0a-36" target="qQ-AOpVeRItCW9Icub0a-35" parent="1">
          <mxGeometry width="50" height="50" relative="1" as="geometry">
            <mxPoint x="925" y="509.44" as="sourcePoint" />
            <mxPoint x="975" y="459.44" as="targetPoint" />
          </mxGeometry>
        </mxCell>
        <mxCell id="qQ-AOpVeRItCW9Icub0a-39" value="Company Finance Management" style="html=1;dashed=0;whiteSpace=wrap;shape=mxgraph.dfd.start" vertex="1" parent="1">
          <mxGeometry x="1250" y="935" width="150" height="80" as="geometry" />
        </mxCell>
        <mxCell id="qQ-AOpVeRItCW9Icub0a-40" value="" style="endArrow=classic;html=1;rounded=0;exitX=0.5;exitY=0;exitDx=0;exitDy=0;entryX=0;entryY=0.5;entryDx=0;entryDy=0;entryPerimeter=0;" edge="1" parent="1" source="qQ-AOpVeRItCW9Icub0a-15" target="qQ-AOpVeRItCW9Icub0a-39">
          <mxGeometry width="50" height="50" relative="1" as="geometry">
            <mxPoint x="1280" y="995" as="sourcePoint" />
            <mxPoint x="1330" y="945" as="targetPoint" />
          </mxGeometry>
        </mxCell>
        <mxCell id="qQ-AOpVeRItCW9Icub0a-71" value="Report" style="edgeLabel;html=1;align=center;verticalAlign=middle;resizable=0;points=[];" vertex="1" connectable="0" parent="qQ-AOpVeRItCW9Icub0a-40">
          <mxGeometry x="-0.3241" relative="1" as="geometry">
            <mxPoint as="offset" />
          </mxGeometry>
        </mxCell>
        <mxCell id="qQ-AOpVeRItCW9Icub0a-41" value="Salary Management" style="html=1;dashed=0;whiteSpace=wrap;shape=mxgraph.dfd.start" vertex="1" parent="1">
          <mxGeometry x="1250" y="795" width="150" height="80" as="geometry" />
        </mxCell>
        <mxCell id="qQ-AOpVeRItCW9Icub0a-42" value="" style="endArrow=classic;html=1;rounded=0;exitX=1;exitY=0;exitDx=0;exitDy=0;entryX=0;entryY=0;entryDx=11.719999999999999;entryDy=68.28;entryPerimeter=0;" edge="1" parent="1" source="qQ-AOpVeRItCW9Icub0a-15" target="qQ-AOpVeRItCW9Icub0a-39">
          <mxGeometry width="50" height="50" relative="1" as="geometry">
            <mxPoint x="1330" y="975" as="sourcePoint" />
            <mxPoint x="1380" y="925" as="targetPoint" />
          </mxGeometry>
        </mxCell>
        <mxCell id="qQ-AOpVeRItCW9Icub0a-72" value="EmployeeID" style="edgeLabel;html=1;align=center;verticalAlign=middle;resizable=0;points=[];" vertex="1" connectable="0" parent="qQ-AOpVeRItCW9Icub0a-42">
          <mxGeometry x="-0.2537" y="-1" relative="1" as="geometry">
            <mxPoint as="offset" />
          </mxGeometry>
        </mxCell>
        <mxCell id="qQ-AOpVeRItCW9Icub0a-43" value="" style="endArrow=classic;html=1;rounded=0;exitX=1;exitY=0.5;exitDx=0;exitDy=0;entryX=0.5;entryY=0.5;entryDx=0;entryDy=40;entryPerimeter=0;" edge="1" parent="1" source="qQ-AOpVeRItCW9Icub0a-15" target="qQ-AOpVeRItCW9Icub0a-39">
          <mxGeometry width="50" height="50" relative="1" as="geometry">
            <mxPoint x="1330" y="975" as="sourcePoint" />
            <mxPoint x="1380" y="925" as="targetPoint" />
          </mxGeometry>
        </mxCell>
        <mxCell id="qQ-AOpVeRItCW9Icub0a-73" value="new salary" style="edgeLabel;html=1;align=center;verticalAlign=middle;resizable=0;points=[];" vertex="1" connectable="0" parent="qQ-AOpVeRItCW9Icub0a-43">
          <mxGeometry x="-0.2823" y="-1" relative="1" as="geometry">
            <mxPoint as="offset" />
          </mxGeometry>
        </mxCell>
        <mxCell id="qQ-AOpVeRItCW9Icub0a-44" value="" style="endArrow=classic;html=1;rounded=0;exitX=0.5;exitY=0.5;exitDx=0;exitDy=-40;exitPerimeter=0;entryX=0.5;entryY=0.5;entryDx=0;entryDy=40;entryPerimeter=0;" edge="1" parent="1" source="qQ-AOpVeRItCW9Icub0a-39" target="qQ-AOpVeRItCW9Icub0a-41">
          <mxGeometry width="50" height="50" relative="1" as="geometry">
            <mxPoint x="1600" y="945" as="sourcePoint" />
            <mxPoint x="1650" y="895" as="targetPoint" />
          </mxGeometry>
        </mxCell>
        <mxCell id="qQ-AOpVeRItCW9Icub0a-74" value="EmployeeID" style="edgeLabel;html=1;align=center;verticalAlign=middle;resizable=0;points=[];" vertex="1" connectable="0" parent="qQ-AOpVeRItCW9Icub0a-44">
          <mxGeometry x="0.4667" y="-1" relative="1" as="geometry">
            <mxPoint as="offset" />
          </mxGeometry>
        </mxCell>
        <mxCell id="qQ-AOpVeRItCW9Icub0a-58" value="1&lt;span style=&quot;white-space: pre;&quot;&gt;	&lt;/span&gt;Request DataBase" style="html=1;dashed=0;whiteSpace=wrap;shape=mxgraph.dfd.dataStoreID;align=left;spacingLeft=3;points=[[0,0],[0.5,0],[1,0],[0,0.5],[1,0.5],[0,1],[0.5,1],[1,1]];" vertex="1" parent="1">
          <mxGeometry x="790" y="1355" width="140" height="30" as="geometry" />
        </mxCell>
        <mxCell id="qQ-AOpVeRItCW9Icub0a-59" value="" style="endArrow=classic;html=1;rounded=0;exitX=0.667;exitY=1.02;exitDx=0;exitDy=0;exitPerimeter=0;" edge="1" parent="1" source="qQ-AOpVeRItCW9Icub0a-3">
          <mxGeometry width="50" height="50" relative="1" as="geometry">
            <mxPoint x="430" y="1195" as="sourcePoint" />
            <mxPoint x="570" y="1285" as="targetPoint" />
          </mxGeometry>
        </mxCell>
        <mxCell id="qQ-AOpVeRItCW9Icub0a-60" value="Request" style="edgeLabel;html=1;align=center;verticalAlign=middle;resizable=0;points=[];" vertex="1" connectable="0" parent="qQ-AOpVeRItCW9Icub0a-59">
          <mxGeometry x="0.3415" y="-1" relative="1" as="geometry">
            <mxPoint y="-11" as="offset" />
          </mxGeometry>
        </mxCell>
        <mxCell id="qQ-AOpVeRItCW9Icub0a-61" value="" style="endArrow=classic;html=1;rounded=0;exitX=0.75;exitY=1;exitDx=0;exitDy=0;entryX=0;entryY=0.375;entryDx=0;entryDy=0;entryPerimeter=0;" edge="1" parent="1" source="qQ-AOpVeRItCW9Icub0a-27" target="qQ-AOpVeRItCW9Icub0a-3">
          <mxGeometry width="50" height="50" relative="1" as="geometry">
            <mxPoint x="460" y="1205" as="sourcePoint" />
            <mxPoint x="510" y="1155" as="targetPoint" />
          </mxGeometry>
        </mxCell>
        <mxCell id="qQ-AOpVeRItCW9Icub0a-62" value="EmployeeID" style="edgeLabel;html=1;align=center;verticalAlign=middle;resizable=0;points=[];" vertex="1" connectable="0" parent="qQ-AOpVeRItCW9Icub0a-61">
          <mxGeometry x="0.1356" y="-2" relative="1" as="geometry">
            <mxPoint as="offset" />
          </mxGeometry>
        </mxCell>
        <mxCell id="qQ-AOpVeRItCW9Icub0a-63" value="" style="endArrow=classic;html=1;rounded=0;exitX=0;exitY=0;exitDx=0;exitDy=0;entryX=0;entryY=0;entryDx=138.28;entryDy=11.720000000000002;entryPerimeter=0;" edge="1" parent="1" source="qQ-AOpVeRItCW9Icub0a-2" target="qQ-AOpVeRItCW9Icub0a-3">
          <mxGeometry width="50" height="50" relative="1" as="geometry">
            <mxPoint x="460" y="1205" as="sourcePoint" />
            <mxPoint x="510" y="1155" as="targetPoint" />
          </mxGeometry>
        </mxCell>
        <mxCell id="qQ-AOpVeRItCW9Icub0a-64" value="EmployeeID" style="edgeLabel;html=1;align=center;verticalAlign=middle;resizable=0;points=[];" vertex="1" connectable="0" parent="qQ-AOpVeRItCW9Icub0a-63">
          <mxGeometry x="-0.1862" relative="1" as="geometry">
            <mxPoint as="offset" />
          </mxGeometry>
        </mxCell>
        <mxCell id="qQ-AOpVeRItCW9Icub0a-65" value="" style="endArrow=classic;html=1;rounded=0;exitX=0.387;exitY=1.015;exitDx=0;exitDy=0;exitPerimeter=0;" edge="1" parent="1" source="qQ-AOpVeRItCW9Icub0a-3">
          <mxGeometry width="50" height="50" relative="1" as="geometry">
            <mxPoint x="460" y="1205" as="sourcePoint" />
            <mxPoint x="490" y="1285" as="targetPoint" />
          </mxGeometry>
        </mxCell>
        <mxCell id="qQ-AOpVeRItCW9Icub0a-66" value="EmployeeID" style="edgeLabel;html=1;align=center;verticalAlign=middle;resizable=0;points=[];" vertex="1" connectable="0" parent="qQ-AOpVeRItCW9Icub0a-65">
          <mxGeometry x="0.3303" y="1" relative="1" as="geometry">
            <mxPoint y="-11" as="offset" />
          </mxGeometry>
        </mxCell>
        <mxCell id="qQ-AOpVeRItCW9Icub0a-67" value="" style="endArrow=classic;html=1;rounded=0;exitX=0;exitY=0;exitDx=0;exitDy=0;entryX=0.266;entryY=0.995;entryDx=0;entryDy=0;entryPerimeter=0;" edge="1" parent="1" source="qQ-AOpVeRItCW9Icub0a-58" target="qQ-AOpVeRItCW9Icub0a-7">
          <mxGeometry width="50" height="50" relative="1" as="geometry">
            <mxPoint x="870" y="1255" as="sourcePoint" />
            <mxPoint x="920" y="1205" as="targetPoint" />
          </mxGeometry>
        </mxCell>
        <mxCell id="qQ-AOpVeRItCW9Icub0a-68" value="Request" style="edgeLabel;html=1;align=center;verticalAlign=middle;resizable=0;points=[];" vertex="1" connectable="0" parent="qQ-AOpVeRItCW9Icub0a-67">
          <mxGeometry x="-0.278" relative="1" as="geometry">
            <mxPoint as="offset" />
          </mxGeometry>
        </mxCell>
        <mxCell id="qQ-AOpVeRItCW9Icub0a-69" value="" style="endArrow=classic;html=1;rounded=0;exitX=0.287;exitY=-0.036;exitDx=0;exitDy=0;entryX=0.5;entryY=0.5;entryDx=0;entryDy=40;entryPerimeter=0;exitPerimeter=0;" edge="1" parent="1" source="qQ-AOpVeRItCW9Icub0a-58" target="qQ-AOpVeRItCW9Icub0a-7">
          <mxGeometry width="50" height="50" relative="1" as="geometry">
            <mxPoint x="870" y="1255" as="sourcePoint" />
            <mxPoint x="920" y="1205" as="targetPoint" />
          </mxGeometry>
        </mxCell>
        <mxCell id="qQ-AOpVeRItCW9Icub0a-70" value="EmployeeID" style="edgeLabel;html=1;align=center;verticalAlign=middle;resizable=0;points=[];" vertex="1" connectable="0" parent="qQ-AOpVeRItCW9Icub0a-69">
          <mxGeometry x="-0.6361" relative="1" as="geometry">
            <mxPoint y="-1" as="offset" />
          </mxGeometry>
        </mxCell>
        <mxCell id="qQ-AOpVeRItCW9Icub0a-75" value="" style="endArrow=classic;html=1;rounded=0;exitX=0.29;exitY=0.006;exitDx=0;exitDy=0;exitPerimeter=0;entryX=0.172;entryY=0.971;entryDx=0;entryDy=0;entryPerimeter=0;" edge="1" parent="1" source="qQ-AOpVeRItCW9Icub0a-39" target="qQ-AOpVeRItCW9Icub0a-41">
          <mxGeometry width="50" height="50" relative="1" as="geometry">
            <mxPoint x="1230" y="1005" as="sourcePoint" />
            <mxPoint x="1280" y="955" as="targetPoint" />
          </mxGeometry>
        </mxCell>
        <mxCell id="qQ-AOpVeRItCW9Icub0a-76" value="New Salary" style="edgeLabel;html=1;align=center;verticalAlign=middle;resizable=0;points=[];" vertex="1" connectable="0" parent="qQ-AOpVeRItCW9Icub0a-75">
          <mxGeometry x="-0.3329" y="1" relative="1" as="geometry">
            <mxPoint as="offset" />
          </mxGeometry>
        </mxCell>
        <mxCell id="qQ-AOpVeRItCW9Icub0a-78" value="" style="endArrow=classic;html=1;rounded=0;exitX=0.58;exitY=0.995;exitDx=0;exitDy=0;exitPerimeter=0;entryX=0.5;entryY=0;entryDx=0;entryDy=0;" edge="1" parent="1" source="qQ-AOpVeRItCW9Icub0a-7" target="qQ-AOpVeRItCW9Icub0a-58">
          <mxGeometry width="50" height="50" relative="1" as="geometry">
            <mxPoint x="1020" y="1265" as="sourcePoint" />
            <mxPoint x="1070" y="1215" as="targetPoint" />
            <Array as="points">
              <mxPoint x="950" y="1285" />
            </Array>
          </mxGeometry>
        </mxCell>
        <mxCell id="qQ-AOpVeRItCW9Icub0a-79" value="Request Validation" style="edgeLabel;html=1;align=center;verticalAlign=middle;resizable=0;points=[];" vertex="1" connectable="0" parent="qQ-AOpVeRItCW9Icub0a-78">
          <mxGeometry x="0.0492" y="-1" relative="1" as="geometry">
            <mxPoint as="offset" />
          </mxGeometry>
        </mxCell>
        <mxCell id="qQ-AOpVeRItCW9Icub0a-80" value="" style="endArrow=classic;html=1;rounded=0;exitX=0.643;exitY=1.031;exitDx=0;exitDy=0;exitPerimeter=0;entryX=1;entryY=0;entryDx=0;entryDy=0;" edge="1" parent="1" source="qQ-AOpVeRItCW9Icub0a-7" target="qQ-AOpVeRItCW9Icub0a-58">
          <mxGeometry width="50" height="50" relative="1" as="geometry">
            <mxPoint x="940" y="1325" as="sourcePoint" />
            <mxPoint x="990" y="1275" as="targetPoint" />
            <Array as="points">
              <mxPoint x="980" y="1325" />
            </Array>
          </mxGeometry>
        </mxCell>
        <mxCell id="qQ-AOpVeRItCW9Icub0a-81" value="EmployeeID" style="edgeLabel;html=1;align=center;verticalAlign=middle;resizable=0;points=[];" vertex="1" connectable="0" parent="qQ-AOpVeRItCW9Icub0a-80">
          <mxGeometry x="-0.079" relative="1" as="geometry">
            <mxPoint x="3" y="-18" as="offset" />
          </mxGeometry>
        </mxCell>
        <mxCell id="qQ-AOpVeRItCW9Icub0a-82" value="2&lt;span style=&quot;white-space: pre;&quot;&gt;	&lt;/span&gt;Employee DataBase" style="html=1;dashed=0;whiteSpace=wrap;shape=mxgraph.dfd.dataStoreID;align=left;spacingLeft=3;points=[[0,0],[0.5,0],[1,0],[0,0.5],[1,0.5],[0,1],[0.5,1],[1,1]];" vertex="1" parent="1">
          <mxGeometry x="960" y="875" width="150" height="30" as="geometry" />
        </mxCell>
        <mxCell id="qQ-AOpVeRItCW9Icub0a-83" value="" style="endArrow=classic;html=1;rounded=0;exitX=0.801;exitY=0.999;exitDx=0;exitDy=0;exitPerimeter=0;entryX=0;entryY=1;entryDx=0;entryDy=0;" edge="1" parent="1" source="qQ-AOpVeRItCW9Icub0a-41" target="qQ-AOpVeRItCW9Icub0a-211">
          <mxGeometry width="50" height="50" relative="1" as="geometry">
            <mxPoint x="1270" y="905" as="sourcePoint" />
            <mxPoint x="1320" y="855" as="targetPoint" />
          </mxGeometry>
        </mxCell>
        <mxCell id="qQ-AOpVeRItCW9Icub0a-84" value="EmployeeID" style="edgeLabel;html=1;align=center;verticalAlign=middle;resizable=0;points=[];" vertex="1" connectable="0" parent="qQ-AOpVeRItCW9Icub0a-83">
          <mxGeometry x="0.4065" y="1" relative="1" as="geometry">
            <mxPoint as="offset" />
          </mxGeometry>
        </mxCell>
        <mxCell id="qQ-AOpVeRItCW9Icub0a-85" value="" style="endArrow=classic;html=1;rounded=0;exitX=0;exitY=0;exitDx=138.28;exitDy=68.28;exitPerimeter=0;entryX=0;entryY=0;entryDx=0;entryDy=0;" edge="1" parent="1" source="qQ-AOpVeRItCW9Icub0a-41" target="qQ-AOpVeRItCW9Icub0a-211">
          <mxGeometry width="50" height="50" relative="1" as="geometry">
            <mxPoint x="1270" y="905" as="sourcePoint" />
            <mxPoint x="1320" y="855" as="targetPoint" />
          </mxGeometry>
        </mxCell>
        <mxCell id="qQ-AOpVeRItCW9Icub0a-86" value="new salary" style="edgeLabel;html=1;align=center;verticalAlign=middle;resizable=0;points=[];" vertex="1" connectable="0" parent="qQ-AOpVeRItCW9Icub0a-85">
          <mxGeometry x="0.1235" y="1" relative="1" as="geometry">
            <mxPoint as="offset" />
          </mxGeometry>
        </mxCell>
        <mxCell id="qQ-AOpVeRItCW9Icub0a-87" value="HR Department" style="html=1;dashed=0;whiteSpace=wrap;" vertex="1" parent="1">
          <mxGeometry x="1355" y="339.44" width="100" height="50" as="geometry" />
        </mxCell>
        <mxCell id="qQ-AOpVeRItCW9Icub0a-88" value="Team management" style="html=1;dashed=0;whiteSpace=wrap;shape=mxgraph.dfd.start" vertex="1" parent="1">
          <mxGeometry x="1005" y="645" width="150" height="80" as="geometry" />
        </mxCell>
        <mxCell id="qQ-AOpVeRItCW9Icub0a-89" value="Task Management" style="html=1;dashed=0;whiteSpace=wrap;shape=mxgraph.dfd.start" vertex="1" parent="1">
          <mxGeometry x="1025" y="515" width="150" height="80" as="geometry" />
        </mxCell>
        <mxCell id="qQ-AOpVeRItCW9Icub0a-90" value="Work Distribution Management" style="html=1;dashed=0;whiteSpace=wrap;shape=mxgraph.dfd.start" vertex="1" parent="1">
          <mxGeometry x="1330" y="464.44000000000005" width="150" height="80" as="geometry" />
        </mxCell>
        <mxCell id="qQ-AOpVeRItCW9Icub0a-91" value="" style="endArrow=classic;html=1;rounded=0;exitX=0;exitY=1;exitDx=0;exitDy=0;entryX=0;entryY=0;entryDx=11.719999999999999;entryDy=11.720000000000002;entryPerimeter=0;" edge="1" parent="1" source="qQ-AOpVeRItCW9Icub0a-87" target="qQ-AOpVeRItCW9Icub0a-90">
          <mxGeometry width="50" height="50" relative="1" as="geometry">
            <mxPoint x="1660" y="379.44" as="sourcePoint" />
            <mxPoint x="1710" y="329.44" as="targetPoint" />
          </mxGeometry>
        </mxCell>
        <mxCell id="qQ-AOpVeRItCW9Icub0a-92" value="EmployeeID" style="edgeLabel;html=1;align=center;verticalAlign=middle;resizable=0;points=[];" vertex="1" connectable="0" parent="qQ-AOpVeRItCW9Icub0a-91">
          <mxGeometry x="-0.3754" relative="1" as="geometry">
            <mxPoint x="-15" y="12" as="offset" />
          </mxGeometry>
        </mxCell>
        <mxCell id="qQ-AOpVeRItCW9Icub0a-93" value="" style="endArrow=classic;html=1;rounded=0;exitX=0.25;exitY=1;exitDx=0;exitDy=0;entryX=0.342;entryY=0.012;entryDx=0;entryDy=0;entryPerimeter=0;" edge="1" parent="1" source="qQ-AOpVeRItCW9Icub0a-87" target="qQ-AOpVeRItCW9Icub0a-90">
          <mxGeometry width="50" height="50" relative="1" as="geometry">
            <mxPoint x="1660" y="379.44" as="sourcePoint" />
            <mxPoint x="1710" y="329.44" as="targetPoint" />
          </mxGeometry>
        </mxCell>
        <mxCell id="qQ-AOpVeRItCW9Icub0a-104" value="Task" style="edgeLabel;html=1;align=center;verticalAlign=middle;resizable=0;points=[];" vertex="1" connectable="0" parent="qQ-AOpVeRItCW9Icub0a-93">
          <mxGeometry x="-0.4932" relative="1" as="geometry">
            <mxPoint as="offset" />
          </mxGeometry>
        </mxCell>
        <mxCell id="qQ-AOpVeRItCW9Icub0a-95" value="Hiaring Request Management" style="html=1;dashed=0;whiteSpace=wrap;shape=mxgraph.dfd.start" vertex="1" parent="1">
          <mxGeometry x="1115" y="329.44" width="150" height="80" as="geometry" />
        </mxCell>
        <mxCell id="qQ-AOpVeRItCW9Icub0a-96" value="" style="endArrow=classic;html=1;rounded=0;exitX=0;exitY=0;exitDx=138.28;exitDy=11.720000000000002;entryX=0;entryY=0.25;entryDx=0;entryDy=0;exitPerimeter=0;" edge="1" parent="1" source="qQ-AOpVeRItCW9Icub0a-95" target="qQ-AOpVeRItCW9Icub0a-87">
          <mxGeometry width="50" height="50" relative="1" as="geometry">
            <mxPoint x="1315" y="319.44" as="sourcePoint" />
            <mxPoint x="1265" y="369.44" as="targetPoint" />
          </mxGeometry>
        </mxCell>
        <mxCell id="qQ-AOpVeRItCW9Icub0a-97" value="Request" style="edgeLabel;html=1;align=center;verticalAlign=middle;resizable=0;points=[];" vertex="1" connectable="0" parent="qQ-AOpVeRItCW9Icub0a-96">
          <mxGeometry x="0.2561" y="1" relative="1" as="geometry">
            <mxPoint x="-12" y="-2" as="offset" />
          </mxGeometry>
        </mxCell>
        <mxCell id="qQ-AOpVeRItCW9Icub0a-98" value="" style="endArrow=classic;html=1;rounded=0;exitX=-0.012;exitY=0.952;exitDx=0;exitDy=0;exitPerimeter=0;entryX=0;entryY=0;entryDx=138.28;entryDy=68.28;entryPerimeter=0;" edge="1" parent="1" source="qQ-AOpVeRItCW9Icub0a-87" target="qQ-AOpVeRItCW9Icub0a-95">
          <mxGeometry width="50" height="50" relative="1" as="geometry">
            <mxPoint x="1315" y="319.44" as="sourcePoint" />
            <mxPoint x="1265" y="369.44" as="targetPoint" />
          </mxGeometry>
        </mxCell>
        <mxCell id="qQ-AOpVeRItCW9Icub0a-99" value="Confirmation" style="edgeLabel;html=1;align=center;verticalAlign=middle;resizable=0;points=[];" vertex="1" connectable="0" parent="qQ-AOpVeRItCW9Icub0a-98">
          <mxGeometry x="-0.2349" y="-1" relative="1" as="geometry">
            <mxPoint y="-1" as="offset" />
          </mxGeometry>
        </mxCell>
        <mxCell id="qQ-AOpVeRItCW9Icub0a-100" value="" style="endArrow=classic;html=1;rounded=0;exitX=1;exitY=0.25;exitDx=0;exitDy=0;entryX=0;entryY=0;entryDx=11.719999999999999;entryDy=11.720000000000002;entryPerimeter=0;" edge="1" parent="1" source="qQ-AOpVeRItCW9Icub0a-32" target="qQ-AOpVeRItCW9Icub0a-95">
          <mxGeometry width="50" height="50" relative="1" as="geometry">
            <mxPoint x="1025" y="399.44" as="sourcePoint" />
            <mxPoint x="1075" y="349.44" as="targetPoint" />
          </mxGeometry>
        </mxCell>
        <mxCell id="qQ-AOpVeRItCW9Icub0a-101" value="Request" style="edgeLabel;html=1;align=center;verticalAlign=middle;resizable=0;points=[];" vertex="1" connectable="0" parent="qQ-AOpVeRItCW9Icub0a-100">
          <mxGeometry x="-0.3308" y="-1" relative="1" as="geometry">
            <mxPoint as="offset" />
          </mxGeometry>
        </mxCell>
        <mxCell id="qQ-AOpVeRItCW9Icub0a-102" value="" style="endArrow=classic;html=1;rounded=0;exitX=0;exitY=0;exitDx=11.719999999999999;exitDy=68.28;exitPerimeter=0;entryX=1;entryY=0.75;entryDx=0;entryDy=0;" edge="1" parent="1" source="qQ-AOpVeRItCW9Icub0a-95" target="qQ-AOpVeRItCW9Icub0a-32">
          <mxGeometry width="50" height="50" relative="1" as="geometry">
            <mxPoint x="1025" y="399.44" as="sourcePoint" />
            <mxPoint x="1075" y="349.44" as="targetPoint" />
          </mxGeometry>
        </mxCell>
        <mxCell id="qQ-AOpVeRItCW9Icub0a-103" value="Confirmation" style="edgeLabel;html=1;align=center;verticalAlign=middle;resizable=0;points=[];" vertex="1" connectable="0" parent="qQ-AOpVeRItCW9Icub0a-102">
          <mxGeometry x="0.3188" y="-1" relative="1" as="geometry">
            <mxPoint as="offset" />
          </mxGeometry>
        </mxCell>
        <mxCell id="qQ-AOpVeRItCW9Icub0a-105" value="" style="endArrow=classic;html=1;rounded=0;exitX=0.75;exitY=1;exitDx=0;exitDy=0;entryX=0.651;entryY=-0.007;entryDx=0;entryDy=0;entryPerimeter=0;" edge="1" parent="1" source="qQ-AOpVeRItCW9Icub0a-87" target="qQ-AOpVeRItCW9Icub0a-90">
          <mxGeometry width="50" height="50" relative="1" as="geometry">
            <mxPoint x="1505" y="359.44" as="sourcePoint" />
            <mxPoint x="1555" y="309.44" as="targetPoint" />
          </mxGeometry>
        </mxCell>
        <mxCell id="qQ-AOpVeRItCW9Icub0a-106" value="Team Name" style="edgeLabel;html=1;align=center;verticalAlign=middle;resizable=0;points=[];" vertex="1" connectable="0" parent="qQ-AOpVeRItCW9Icub0a-105">
          <mxGeometry x="-0.2186" y="1" relative="1" as="geometry">
            <mxPoint x="-5" y="21" as="offset" />
          </mxGeometry>
        </mxCell>
        <mxCell id="qQ-AOpVeRItCW9Icub0a-107" value="" style="endArrow=classic;html=1;rounded=0;exitX=1;exitY=1;exitDx=0;exitDy=0;entryX=0;entryY=0;entryDx=138.28;entryDy=11.720000000000002;entryPerimeter=0;" edge="1" parent="1" source="qQ-AOpVeRItCW9Icub0a-87" target="qQ-AOpVeRItCW9Icub0a-90">
          <mxGeometry width="50" height="50" relative="1" as="geometry">
            <mxPoint x="1505" y="359.44" as="sourcePoint" />
            <mxPoint x="1555" y="309.44" as="targetPoint" />
          </mxGeometry>
        </mxCell>
        <mxCell id="qQ-AOpVeRItCW9Icub0a-108" value="Schedual" style="edgeLabel;html=1;align=center;verticalAlign=middle;resizable=0;points=[];" vertex="1" connectable="0" parent="qQ-AOpVeRItCW9Icub0a-107">
          <mxGeometry x="-0.348" relative="1" as="geometry">
            <mxPoint as="offset" />
          </mxGeometry>
        </mxCell>
        <mxCell id="qQ-AOpVeRItCW9Icub0a-110" value="" style="endArrow=classic;html=1;rounded=0;exitX=0.267;exitY=1.022;exitDx=0;exitDy=0;exitPerimeter=0;entryX=0;entryY=0;entryDx=138.28;entryDy=11.720000000000002;entryPerimeter=0;" edge="1" parent="1" source="qQ-AOpVeRItCW9Icub0a-90" target="qQ-AOpVeRItCW9Icub0a-88">
          <mxGeometry width="50" height="50" relative="1" as="geometry">
            <mxPoint x="1895" y="279.44" as="sourcePoint" />
            <mxPoint x="1945" y="229.44" as="targetPoint" />
          </mxGeometry>
        </mxCell>
        <mxCell id="qQ-AOpVeRItCW9Icub0a-111" value="Team name" style="edgeLabel;html=1;align=center;verticalAlign=middle;resizable=0;points=[];" vertex="1" connectable="0" parent="qQ-AOpVeRItCW9Icub0a-110">
          <mxGeometry x="-0.4707" relative="1" as="geometry">
            <mxPoint x="-115" y="54" as="offset" />
          </mxGeometry>
        </mxCell>
        <mxCell id="qQ-AOpVeRItCW9Icub0a-112" value="" style="endArrow=classic;html=1;rounded=0;exitX=0.43;exitY=1.025;exitDx=0;exitDy=0;exitPerimeter=0;entryX=1;entryY=0.5;entryDx=0;entryDy=0;entryPerimeter=0;" edge="1" parent="1" source="qQ-AOpVeRItCW9Icub0a-90" target="qQ-AOpVeRItCW9Icub0a-88">
          <mxGeometry width="50" height="50" relative="1" as="geometry">
            <mxPoint x="1805" y="329.44" as="sourcePoint" />
            <mxPoint x="1855" y="279.44" as="targetPoint" />
          </mxGeometry>
        </mxCell>
        <mxCell id="qQ-AOpVeRItCW9Icub0a-113" value="Schedual" style="edgeLabel;html=1;align=center;verticalAlign=middle;resizable=0;points=[];" vertex="1" connectable="0" parent="qQ-AOpVeRItCW9Icub0a-112">
          <mxGeometry x="-0.3228" y="1" relative="1" as="geometry">
            <mxPoint x="-29" y="10" as="offset" />
          </mxGeometry>
        </mxCell>
        <mxCell id="qQ-AOpVeRItCW9Icub0a-114" value="" style="endArrow=classic;html=1;rounded=0;exitX=0.58;exitY=1.054;exitDx=0;exitDy=0;exitPerimeter=0;entryX=0.969;entryY=0.78;entryDx=0;entryDy=0;entryPerimeter=0;" edge="1" parent="1" source="qQ-AOpVeRItCW9Icub0a-90" target="qQ-AOpVeRItCW9Icub0a-88">
          <mxGeometry width="50" height="50" relative="1" as="geometry">
            <mxPoint x="1805" y="329.44" as="sourcePoint" />
            <mxPoint x="1855" y="279.44" as="targetPoint" />
          </mxGeometry>
        </mxCell>
        <mxCell id="qQ-AOpVeRItCW9Icub0a-115" value="EmployeeID" style="edgeLabel;html=1;align=center;verticalAlign=middle;resizable=0;points=[];" vertex="1" connectable="0" parent="qQ-AOpVeRItCW9Icub0a-114">
          <mxGeometry x="-0.4235" relative="1" as="geometry">
            <mxPoint x="25" as="offset" />
          </mxGeometry>
        </mxCell>
        <mxCell id="qQ-AOpVeRItCW9Icub0a-116" value="" style="endArrow=classic;html=1;rounded=0;entryX=0;entryY=0;entryDx=138.28;entryDy=11.720000000000002;entryPerimeter=0;exitX=0.105;exitY=0.907;exitDx=0;exitDy=0;exitPerimeter=0;" edge="1" parent="1" source="qQ-AOpVeRItCW9Icub0a-90" target="qQ-AOpVeRItCW9Icub0a-89">
          <mxGeometry width="50" height="50" relative="1" as="geometry">
            <mxPoint x="1795" y="419.44" as="sourcePoint" />
            <mxPoint x="1845" y="369.44" as="targetPoint" />
          </mxGeometry>
        </mxCell>
        <mxCell id="qQ-AOpVeRItCW9Icub0a-118" value="EmployeeID" style="edgeLabel;html=1;align=center;verticalAlign=middle;resizable=0;points=[];" vertex="1" connectable="0" parent="qQ-AOpVeRItCW9Icub0a-116">
          <mxGeometry x="-0.1588" y="-1" relative="1" as="geometry">
            <mxPoint x="-34" y="-7" as="offset" />
          </mxGeometry>
        </mxCell>
        <mxCell id="qQ-AOpVeRItCW9Icub0a-117" value="" style="endArrow=classic;html=1;rounded=0;exitX=0.173;exitY=0.966;exitDx=0;exitDy=0;exitPerimeter=0;entryX=1;entryY=0.482;entryDx=0;entryDy=0;entryPerimeter=0;" edge="1" parent="1" source="qQ-AOpVeRItCW9Icub0a-90" target="qQ-AOpVeRItCW9Icub0a-89">
          <mxGeometry width="50" height="50" relative="1" as="geometry">
            <mxPoint x="1795" y="419.44" as="sourcePoint" />
            <mxPoint x="1845" y="369.44" as="targetPoint" />
          </mxGeometry>
        </mxCell>
        <mxCell id="qQ-AOpVeRItCW9Icub0a-119" value="Task" style="edgeLabel;html=1;align=center;verticalAlign=middle;resizable=0;points=[];" vertex="1" connectable="0" parent="qQ-AOpVeRItCW9Icub0a-117">
          <mxGeometry x="-0.1809" relative="1" as="geometry">
            <mxPoint as="offset" />
          </mxGeometry>
        </mxCell>
        <mxCell id="qQ-AOpVeRItCW9Icub0a-120" value="" style="endArrow=classic;html=1;rounded=0;exitX=0.206;exitY=1.005;exitDx=0;exitDy=0;exitPerimeter=0;entryX=0;entryY=0;entryDx=138.28;entryDy=68.28;entryPerimeter=0;" edge="1" parent="1" source="qQ-AOpVeRItCW9Icub0a-90" target="qQ-AOpVeRItCW9Icub0a-89">
          <mxGeometry width="50" height="50" relative="1" as="geometry">
            <mxPoint x="1785" y="439.44" as="sourcePoint" />
            <mxPoint x="1835" y="389.44" as="targetPoint" />
          </mxGeometry>
        </mxCell>
        <mxCell id="qQ-AOpVeRItCW9Icub0a-121" value="Schedual" style="edgeLabel;html=1;align=center;verticalAlign=middle;resizable=0;points=[];" vertex="1" connectable="0" parent="qQ-AOpVeRItCW9Icub0a-120">
          <mxGeometry x="-0.2851" y="-1" relative="1" as="geometry">
            <mxPoint x="-65" y="17" as="offset" />
          </mxGeometry>
        </mxCell>
        <mxCell id="qQ-AOpVeRItCW9Icub0a-122" value="" style="endArrow=classic;html=1;rounded=0;exitX=0;exitY=0.5;exitDx=0;exitDy=0;exitPerimeter=0;entryX=1;entryY=0;entryDx=0;entryDy=0;" edge="1" parent="1" source="qQ-AOpVeRItCW9Icub0a-89" target="qQ-AOpVeRItCW9Icub0a-210">
          <mxGeometry width="50" height="50" relative="1" as="geometry">
            <mxPoint x="915" y="725" as="sourcePoint" />
            <mxPoint x="965" y="675" as="targetPoint" />
          </mxGeometry>
        </mxCell>
        <mxCell id="qQ-AOpVeRItCW9Icub0a-124" value="EmployeeID" style="edgeLabel;html=1;align=center;verticalAlign=middle;resizable=0;points=[];" vertex="1" connectable="0" parent="qQ-AOpVeRItCW9Icub0a-122">
          <mxGeometry x="0.2429" y="-2" relative="1" as="geometry">
            <mxPoint as="offset" />
          </mxGeometry>
        </mxCell>
        <mxCell id="qQ-AOpVeRItCW9Icub0a-123" value="" style="endArrow=classic;html=1;rounded=0;exitX=0;exitY=0;exitDx=11.719999999999999;exitDy=68.28;exitPerimeter=0;entryX=1;entryY=1;entryDx=0;entryDy=0;" edge="1" parent="1" source="qQ-AOpVeRItCW9Icub0a-89" target="qQ-AOpVeRItCW9Icub0a-210">
          <mxGeometry width="50" height="50" relative="1" as="geometry">
            <mxPoint x="915" y="725" as="sourcePoint" />
            <mxPoint x="965" y="675" as="targetPoint" />
          </mxGeometry>
        </mxCell>
        <mxCell id="qQ-AOpVeRItCW9Icub0a-125" value="Schedual" style="edgeLabel;html=1;align=center;verticalAlign=middle;resizable=0;points=[];" vertex="1" connectable="0" parent="qQ-AOpVeRItCW9Icub0a-123">
          <mxGeometry x="0.5042" relative="1" as="geometry">
            <mxPoint as="offset" />
          </mxGeometry>
        </mxCell>
        <mxCell id="qQ-AOpVeRItCW9Icub0a-129" value="3&lt;span style=&quot;white-space: pre;&quot;&gt;	&lt;/span&gt;Team DataBase" style="html=1;dashed=0;whiteSpace=wrap;shape=mxgraph.dfd.dataStoreID;align=left;spacingLeft=3;points=[[0,0],[0.5,0],[1,0],[0,0.5],[1,0.5],[0,1],[0.5,1],[1,1]];" vertex="1" parent="1">
          <mxGeometry x="1005" y="805" width="130" height="30" as="geometry" />
        </mxCell>
        <mxCell id="qQ-AOpVeRItCW9Icub0a-130" value="" style="endArrow=classic;html=1;rounded=0;exitX=0.342;exitY=0.989;exitDx=0;exitDy=0;exitPerimeter=0;entryX=0.377;entryY=-0.044;entryDx=0;entryDy=0;entryPerimeter=0;" edge="1" parent="1" source="qQ-AOpVeRItCW9Icub0a-88" target="qQ-AOpVeRItCW9Icub0a-129">
          <mxGeometry width="50" height="50" relative="1" as="geometry">
            <mxPoint x="1115" y="695" as="sourcePoint" />
            <mxPoint x="1165" y="645" as="targetPoint" />
          </mxGeometry>
        </mxCell>
        <mxCell id="qQ-AOpVeRItCW9Icub0a-131" value="Team" style="edgeLabel;html=1;align=center;verticalAlign=middle;resizable=0;points=[];" vertex="1" connectable="0" parent="qQ-AOpVeRItCW9Icub0a-130">
          <mxGeometry x="-0.4618" relative="1" as="geometry">
            <mxPoint as="offset" />
          </mxGeometry>
        </mxCell>
        <mxCell id="qQ-AOpVeRItCW9Icub0a-132" value="" style="endArrow=classic;html=1;rounded=0;exitX=0.5;exitY=0.5;exitDx=0;exitDy=40;exitPerimeter=0;entryX=0.57;entryY=-0.06;entryDx=0;entryDy=0;entryPerimeter=0;" edge="1" parent="1" source="qQ-AOpVeRItCW9Icub0a-88" target="qQ-AOpVeRItCW9Icub0a-129">
          <mxGeometry width="50" height="50" relative="1" as="geometry">
            <mxPoint x="1115" y="695" as="sourcePoint" />
            <mxPoint x="1165" y="645" as="targetPoint" />
          </mxGeometry>
        </mxCell>
        <mxCell id="qQ-AOpVeRItCW9Icub0a-133" value="EmployeeID" style="edgeLabel;html=1;align=center;verticalAlign=middle;resizable=0;points=[];" vertex="1" connectable="0" parent="qQ-AOpVeRItCW9Icub0a-132">
          <mxGeometry x="-0.4388" y="-1" relative="1" as="geometry">
            <mxPoint x="6" y="18" as="offset" />
          </mxGeometry>
        </mxCell>
        <mxCell id="qQ-AOpVeRItCW9Icub0a-134" value="" style="endArrow=classic;html=1;rounded=0;exitX=0.736;exitY=1.024;exitDx=0;exitDy=0;exitPerimeter=0;entryX=0.923;entryY=0;entryDx=0;entryDy=0;entryPerimeter=0;" edge="1" parent="1" source="qQ-AOpVeRItCW9Icub0a-88" target="qQ-AOpVeRItCW9Icub0a-129">
          <mxGeometry width="50" height="50" relative="1" as="geometry">
            <mxPoint x="1115" y="695" as="sourcePoint" />
            <mxPoint x="1165" y="645" as="targetPoint" />
          </mxGeometry>
        </mxCell>
        <mxCell id="qQ-AOpVeRItCW9Icub0a-135" value="Schedual" style="edgeLabel;html=1;align=center;verticalAlign=middle;resizable=0;points=[];" vertex="1" connectable="0" parent="qQ-AOpVeRItCW9Icub0a-134">
          <mxGeometry x="-0.5625" y="-1" relative="1" as="geometry">
            <mxPoint as="offset" />
          </mxGeometry>
        </mxCell>
        <mxCell id="qQ-AOpVeRItCW9Icub0a-137" value="Legal Affairs Management" style="html=1;dashed=0;whiteSpace=wrap;shape=mxgraph.dfd.start" vertex="1" parent="1">
          <mxGeometry x="660" y="925" width="150" height="80" as="geometry" />
        </mxCell>
        <mxCell id="qQ-AOpVeRItCW9Icub0a-138" value="Lawyer" style="html=1;dashed=0;whiteSpace=wrap;" vertex="1" parent="1">
          <mxGeometry x="530" y="795" width="100" height="50" as="geometry" />
        </mxCell>
        <mxCell id="qQ-AOpVeRItCW9Icub0a-139" value="" style="endArrow=classic;html=1;rounded=0;exitX=1;exitY=0.5;exitDx=0;exitDy=0;entryX=0.5;entryY=0.5;entryDx=0;entryDy=-40;entryPerimeter=0;" edge="1" parent="1" source="qQ-AOpVeRItCW9Icub0a-138" target="qQ-AOpVeRItCW9Icub0a-137">
          <mxGeometry width="50" height="50" relative="1" as="geometry">
            <mxPoint x="880" y="715" as="sourcePoint" />
            <mxPoint x="930" y="665" as="targetPoint" />
          </mxGeometry>
        </mxCell>
        <mxCell id="qQ-AOpVeRItCW9Icub0a-144" value="EmployeeID" style="edgeLabel;html=1;align=center;verticalAlign=middle;resizable=0;points=[];" vertex="1" connectable="0" parent="qQ-AOpVeRItCW9Icub0a-139">
          <mxGeometry x="-0.1115" relative="1" as="geometry">
            <mxPoint x="12" y="16" as="offset" />
          </mxGeometry>
        </mxCell>
        <mxCell id="qQ-AOpVeRItCW9Icub0a-140" value="" style="endArrow=classic;html=1;rounded=0;exitX=1;exitY=1;exitDx=0;exitDy=0;entryX=0;entryY=0;entryDx=11.719999999999999;entryDy=11.720000000000002;entryPerimeter=0;" edge="1" parent="1" source="qQ-AOpVeRItCW9Icub0a-138" target="qQ-AOpVeRItCW9Icub0a-137">
          <mxGeometry width="50" height="50" relative="1" as="geometry">
            <mxPoint x="880" y="715" as="sourcePoint" />
            <mxPoint x="930" y="665" as="targetPoint" />
          </mxGeometry>
        </mxCell>
        <mxCell id="qQ-AOpVeRItCW9Icub0a-145" value="Action" style="edgeLabel;html=1;align=center;verticalAlign=middle;resizable=0;points=[];" vertex="1" connectable="0" parent="qQ-AOpVeRItCW9Icub0a-140">
          <mxGeometry x="-0.2102" y="-1" relative="1" as="geometry">
            <mxPoint x="2" y="14" as="offset" />
          </mxGeometry>
        </mxCell>
        <mxCell id="qQ-AOpVeRItCW9Icub0a-141" value="" style="endArrow=classic;html=1;rounded=0;exitX=0.5;exitY=1;exitDx=0;exitDy=0;entryX=0;entryY=0.5;entryDx=0;entryDy=0;entryPerimeter=0;" edge="1" parent="1" source="qQ-AOpVeRItCW9Icub0a-138" target="qQ-AOpVeRItCW9Icub0a-137">
          <mxGeometry width="50" height="50" relative="1" as="geometry">
            <mxPoint x="800" y="875" as="sourcePoint" />
            <mxPoint x="750" y="925" as="targetPoint" />
          </mxGeometry>
        </mxCell>
        <mxCell id="qQ-AOpVeRItCW9Icub0a-147" value="Legal Document" style="edgeLabel;html=1;align=center;verticalAlign=middle;resizable=0;points=[];" vertex="1" connectable="0" parent="qQ-AOpVeRItCW9Icub0a-141">
          <mxGeometry x="0.3547" y="1" relative="1" as="geometry">
            <mxPoint x="-20" y="-1" as="offset" />
          </mxGeometry>
        </mxCell>
        <mxCell id="qQ-AOpVeRItCW9Icub0a-142" value="" style="endArrow=classic;html=1;rounded=0;exitX=0.735;exitY=0.02;exitDx=0;exitDy=0;exitPerimeter=0;entryX=1;entryY=0;entryDx=0;entryDy=0;" edge="1" parent="1" source="qQ-AOpVeRItCW9Icub0a-137" target="qQ-AOpVeRItCW9Icub0a-138">
          <mxGeometry width="50" height="50" relative="1" as="geometry">
            <mxPoint x="970" y="925" as="sourcePoint" />
            <mxPoint x="1020" y="875" as="targetPoint" />
          </mxGeometry>
        </mxCell>
        <mxCell id="qQ-AOpVeRItCW9Icub0a-146" value="Legal Document" style="edgeLabel;html=1;align=center;verticalAlign=middle;resizable=0;points=[];" vertex="1" connectable="0" parent="qQ-AOpVeRItCW9Icub0a-142">
          <mxGeometry x="0.4877" y="-1" relative="1" as="geometry">
            <mxPoint x="31" y="8" as="offset" />
          </mxGeometry>
        </mxCell>
        <mxCell id="qQ-AOpVeRItCW9Icub0a-143" value="3&lt;span style=&quot;white-space: pre;&quot;&gt;	&lt;/span&gt;Legal Document DataBase" style="html=1;dashed=0;whiteSpace=wrap;shape=mxgraph.dfd.dataStoreID;align=left;spacingLeft=3;points=[[0,0],[0.5,0],[1,0],[0,0.5],[1,0.5],[0,1],[0.5,1],[1,1]];" vertex="1" parent="1">
          <mxGeometry x="780" y="795" width="190" height="30" as="geometry" />
        </mxCell>
        <mxCell id="qQ-AOpVeRItCW9Icub0a-148" value="" style="endArrow=classic;html=1;rounded=0;entryX=0.356;entryY=1.078;entryDx=0;entryDy=0;entryPerimeter=0;exitX=0.788;exitY=0.02;exitDx=0;exitDy=0;exitPerimeter=0;" edge="1" parent="1" source="qQ-AOpVeRItCW9Icub0a-137" target="qQ-AOpVeRItCW9Icub0a-143">
          <mxGeometry width="50" height="50" relative="1" as="geometry">
            <mxPoint x="768" y="925" as="sourcePoint" />
            <mxPoint x="900" y="825" as="targetPoint" />
          </mxGeometry>
        </mxCell>
        <mxCell id="qQ-AOpVeRItCW9Icub0a-150" value="Legal Document" style="edgeLabel;html=1;align=center;verticalAlign=middle;resizable=0;points=[];" vertex="1" connectable="0" parent="qQ-AOpVeRItCW9Icub0a-148">
          <mxGeometry x="-0.1869" y="-1" relative="1" as="geometry">
            <mxPoint x="-11" y="-11" as="offset" />
          </mxGeometry>
        </mxCell>
        <mxCell id="qQ-AOpVeRItCW9Icub0a-149" value="" style="endArrow=classic;html=1;rounded=0;entryX=0;entryY=0;entryDx=138.28;entryDy=11.720000000000002;entryPerimeter=0;exitX=0.5;exitY=1;exitDx=0;exitDy=0;" edge="1" parent="1" source="qQ-AOpVeRItCW9Icub0a-143" target="qQ-AOpVeRItCW9Icub0a-137">
          <mxGeometry width="50" height="50" relative="1" as="geometry">
            <mxPoint x="850" y="875" as="sourcePoint" />
            <mxPoint x="900" y="825" as="targetPoint" />
          </mxGeometry>
        </mxCell>
        <mxCell id="qQ-AOpVeRItCW9Icub0a-151" value="Legal Document" style="edgeLabel;html=1;align=center;verticalAlign=middle;resizable=0;points=[];" vertex="1" connectable="0" parent="qQ-AOpVeRItCW9Icub0a-149">
          <mxGeometry x="-0.3639" y="-2" relative="1" as="geometry">
            <mxPoint x="-9" y="46" as="offset" />
          </mxGeometry>
        </mxCell>
        <mxCell id="qQ-AOpVeRItCW9Icub0a-152" value="" style="endArrow=classic;html=1;rounded=0;exitX=1;exitY=0.5;exitDx=0;exitDy=0;exitPerimeter=0;entryX=0.5;entryY=1;entryDx=0;entryDy=0;" edge="1" parent="1" source="qQ-AOpVeRItCW9Icub0a-137" target="qQ-AOpVeRItCW9Icub0a-82">
          <mxGeometry width="50" height="50" relative="1" as="geometry">
            <mxPoint x="1050" y="935" as="sourcePoint" />
            <mxPoint x="1100" y="885" as="targetPoint" />
          </mxGeometry>
        </mxCell>
        <mxCell id="qQ-AOpVeRItCW9Icub0a-154" value="EmployeeID" style="edgeLabel;html=1;align=center;verticalAlign=middle;resizable=0;points=[];" vertex="1" connectable="0" parent="qQ-AOpVeRItCW9Icub0a-152">
          <mxGeometry x="-0.1268" y="-1" relative="1" as="geometry">
            <mxPoint as="offset" />
          </mxGeometry>
        </mxCell>
        <mxCell id="qQ-AOpVeRItCW9Icub0a-153" value="" style="endArrow=classic;html=1;rounded=0;exitX=0.987;exitY=0.714;exitDx=0;exitDy=0;exitPerimeter=0;entryX=0.705;entryY=0.959;entryDx=0;entryDy=0;entryPerimeter=0;" edge="1" parent="1" source="qQ-AOpVeRItCW9Icub0a-137" target="qQ-AOpVeRItCW9Icub0a-82">
          <mxGeometry width="50" height="50" relative="1" as="geometry">
            <mxPoint x="1050" y="935" as="sourcePoint" />
            <mxPoint x="1100" y="885" as="targetPoint" />
          </mxGeometry>
        </mxCell>
        <mxCell id="qQ-AOpVeRItCW9Icub0a-155" value="Action" style="edgeLabel;html=1;align=center;verticalAlign=middle;resizable=0;points=[];" vertex="1" connectable="0" parent="qQ-AOpVeRItCW9Icub0a-153">
          <mxGeometry x="-0.5082" y="-1" relative="1" as="geometry">
            <mxPoint as="offset" />
          </mxGeometry>
        </mxCell>
        <mxCell id="qQ-AOpVeRItCW9Icub0a-156" value="4&lt;span style=&quot;white-space: pre;&quot;&gt;	&lt;/span&gt;Production DataBase" style="html=1;dashed=0;whiteSpace=wrap;shape=mxgraph.dfd.dataStoreID;align=left;spacingLeft=3;points=[[0,0],[0.5,0],[1,0],[0,0.5],[1,0.5],[0,1],[0.5,1],[1,1]];" vertex="1" parent="1">
          <mxGeometry x="340" y="820" width="150" height="30" as="geometry" />
        </mxCell>
        <mxCell id="qQ-AOpVeRItCW9Icub0a-157" value="Waste Management" style="html=1;dashed=0;whiteSpace=wrap;shape=mxgraph.dfd.start" vertex="1" parent="1">
          <mxGeometry x="360" y="930" width="150" height="80" as="geometry" />
        </mxCell>
        <mxCell id="qQ-AOpVeRItCW9Icub0a-158" value="Rectclidng Department" style="html=1;dashed=0;whiteSpace=wrap;" vertex="1" parent="1">
          <mxGeometry x="180" y="915" width="100" height="50" as="geometry" />
        </mxCell>
        <mxCell id="qQ-AOpVeRItCW9Icub0a-159" value="Production Department" style="html=1;dashed=0;whiteSpace=wrap;" vertex="1" parent="1">
          <mxGeometry x="410" y="620" width="100" height="50" as="geometry" />
        </mxCell>
        <mxCell id="qQ-AOpVeRItCW9Icub0a-160" value="" style="endArrow=classic;html=1;rounded=0;exitX=1;exitY=0.25;exitDx=0;exitDy=0;entryX=0;entryY=0;entryDx=11.719999999999999;entryDy=11.720000000000002;entryPerimeter=0;" edge="1" parent="1" source="qQ-AOpVeRItCW9Icub0a-158" target="qQ-AOpVeRItCW9Icub0a-157">
          <mxGeometry width="50" height="50" relative="1" as="geometry">
            <mxPoint x="360" y="950" as="sourcePoint" />
            <mxPoint x="410" y="900" as="targetPoint" />
          </mxGeometry>
        </mxCell>
        <mxCell id="qQ-AOpVeRItCW9Icub0a-165" value="Report" style="edgeLabel;html=1;align=center;verticalAlign=middle;resizable=0;points=[];" vertex="1" connectable="0" parent="qQ-AOpVeRItCW9Icub0a-160">
          <mxGeometry x="-0.2431" relative="1" as="geometry">
            <mxPoint as="offset" />
          </mxGeometry>
        </mxCell>
        <mxCell id="qQ-AOpVeRItCW9Icub0a-161" value="" style="endArrow=classic;html=1;rounded=0;exitX=0.024;exitY=0.33;exitDx=0;exitDy=0;exitPerimeter=0;entryX=1;entryY=0.75;entryDx=0;entryDy=0;" edge="1" parent="1" source="qQ-AOpVeRItCW9Icub0a-157" target="qQ-AOpVeRItCW9Icub0a-158">
          <mxGeometry width="50" height="50" relative="1" as="geometry">
            <mxPoint x="360" y="950" as="sourcePoint" />
            <mxPoint x="410" y="900" as="targetPoint" />
          </mxGeometry>
        </mxCell>
        <mxCell id="qQ-AOpVeRItCW9Icub0a-166" value="Report" style="edgeLabel;html=1;align=center;verticalAlign=middle;resizable=0;points=[];" vertex="1" connectable="0" parent="qQ-AOpVeRItCW9Icub0a-161">
          <mxGeometry x="0.3619" y="1" relative="1" as="geometry">
            <mxPoint as="offset" />
          </mxGeometry>
        </mxCell>
        <mxCell id="qQ-AOpVeRItCW9Icub0a-163" value="" style="endArrow=classic;html=1;rounded=0;entryX=0.306;entryY=1.042;entryDx=0;entryDy=0;entryPerimeter=0;" edge="1" parent="1" source="qQ-AOpVeRItCW9Icub0a-157" target="qQ-AOpVeRItCW9Icub0a-156">
          <mxGeometry width="50" height="50" relative="1" as="geometry">
            <mxPoint x="290" y="890" as="sourcePoint" />
            <mxPoint x="340" y="840" as="targetPoint" />
          </mxGeometry>
        </mxCell>
        <mxCell id="qQ-AOpVeRItCW9Icub0a-167" value="Report" style="edgeLabel;html=1;align=center;verticalAlign=middle;resizable=0;points=[];" vertex="1" connectable="0" parent="qQ-AOpVeRItCW9Icub0a-163">
          <mxGeometry x="-0.1178" relative="1" as="geometry">
            <mxPoint as="offset" />
          </mxGeometry>
        </mxCell>
        <mxCell id="qQ-AOpVeRItCW9Icub0a-164" value="" style="endArrow=classic;html=1;rounded=0;exitX=0.694;exitY=1.055;exitDx=0;exitDy=0;exitPerimeter=0;entryX=0.701;entryY=0.016;entryDx=0;entryDy=0;entryPerimeter=0;" edge="1" parent="1" source="qQ-AOpVeRItCW9Icub0a-156" target="qQ-AOpVeRItCW9Icub0a-157">
          <mxGeometry width="50" height="50" relative="1" as="geometry">
            <mxPoint x="290" y="890" as="sourcePoint" />
            <mxPoint x="340" y="840" as="targetPoint" />
          </mxGeometry>
        </mxCell>
        <mxCell id="qQ-AOpVeRItCW9Icub0a-168" value="Report" style="edgeLabel;html=1;align=center;verticalAlign=middle;resizable=0;points=[];" vertex="1" connectable="0" parent="qQ-AOpVeRItCW9Icub0a-164">
          <mxGeometry x="-0.5784" relative="1" as="geometry">
            <mxPoint as="offset" />
          </mxGeometry>
        </mxCell>
        <mxCell id="qQ-AOpVeRItCW9Icub0a-169" value="Production Managment" style="html=1;dashed=0;whiteSpace=wrap;shape=mxgraph.dfd.start" vertex="1" parent="1">
          <mxGeometry x="350" y="710" width="150" height="80" as="geometry" />
        </mxCell>
        <mxCell id="qQ-AOpVeRItCW9Icub0a-170" value="" style="endArrow=classic;html=1;rounded=0;exitX=0.5;exitY=1;exitDx=0;exitDy=0;entryX=0.5;entryY=0.5;entryDx=0;entryDy=-40;entryPerimeter=0;" edge="1" parent="1" source="qQ-AOpVeRItCW9Icub0a-159" target="qQ-AOpVeRItCW9Icub0a-169">
          <mxGeometry width="50" height="50" relative="1" as="geometry">
            <mxPoint x="390" y="750" as="sourcePoint" />
            <mxPoint x="440" y="700" as="targetPoint" />
          </mxGeometry>
        </mxCell>
        <mxCell id="qQ-AOpVeRItCW9Icub0a-171" value="Report" style="edgeLabel;html=1;align=center;verticalAlign=middle;resizable=0;points=[];" vertex="1" connectable="0" parent="qQ-AOpVeRItCW9Icub0a-170">
          <mxGeometry x="-0.4244" relative="1" as="geometry">
            <mxPoint as="offset" />
          </mxGeometry>
        </mxCell>
        <mxCell id="qQ-AOpVeRItCW9Icub0a-172" value="" style="endArrow=classic;html=1;rounded=0;exitX=0.191;exitY=0.007;exitDx=0;exitDy=0;exitPerimeter=0;entryX=0.014;entryY=0.96;entryDx=0;entryDy=0;entryPerimeter=0;" edge="1" parent="1" source="qQ-AOpVeRItCW9Icub0a-169" target="qQ-AOpVeRItCW9Icub0a-159">
          <mxGeometry width="50" height="50" relative="1" as="geometry">
            <mxPoint x="420" y="790" as="sourcePoint" />
            <mxPoint x="470" y="740" as="targetPoint" />
          </mxGeometry>
        </mxCell>
        <mxCell id="qQ-AOpVeRItCW9Icub0a-173" value="Report" style="edgeLabel;html=1;align=center;verticalAlign=middle;resizable=0;points=[];" vertex="1" connectable="0" parent="qQ-AOpVeRItCW9Icub0a-172">
          <mxGeometry x="-0.3228" relative="1" as="geometry">
            <mxPoint as="offset" />
          </mxGeometry>
        </mxCell>
        <mxCell id="qQ-AOpVeRItCW9Icub0a-175" value="Compare Production TO Predicted" style="html=1;dashed=0;whiteSpace=wrap;shape=mxgraph.dfd.start" vertex="1" parent="1">
          <mxGeometry x="150" y="740" width="150" height="80" as="geometry" />
        </mxCell>
        <mxCell id="qQ-AOpVeRItCW9Icub0a-176" value="" style="endArrow=classic;html=1;rounded=0;exitX=0.841;exitY=0.039;exitDx=0;exitDy=0;exitPerimeter=0;entryX=0.75;entryY=1;entryDx=0;entryDy=0;" edge="1" parent="1" source="qQ-AOpVeRItCW9Icub0a-169" target="qQ-AOpVeRItCW9Icub0a-159">
          <mxGeometry width="50" height="50" relative="1" as="geometry">
            <mxPoint x="330" y="790" as="sourcePoint" />
            <mxPoint x="380" y="740" as="targetPoint" />
          </mxGeometry>
        </mxCell>
        <mxCell id="qQ-AOpVeRItCW9Icub0a-177" value="Ratio" style="edgeLabel;html=1;align=center;verticalAlign=middle;resizable=0;points=[];" vertex="1" connectable="0" parent="qQ-AOpVeRItCW9Icub0a-176">
          <mxGeometry x="0.3424" y="-1" relative="1" as="geometry">
            <mxPoint as="offset" />
          </mxGeometry>
        </mxCell>
        <mxCell id="qQ-AOpVeRItCW9Icub0a-178" value="" style="endArrow=classic;html=1;rounded=0;exitX=0;exitY=0;exitDx=138.28;exitDy=11.720000000000002;exitPerimeter=0;" edge="1" parent="1" source="qQ-AOpVeRItCW9Icub0a-175">
          <mxGeometry width="50" height="50" relative="1" as="geometry">
            <mxPoint x="330" y="790" as="sourcePoint" />
            <mxPoint x="350" y="740" as="targetPoint" />
          </mxGeometry>
        </mxCell>
        <mxCell id="qQ-AOpVeRItCW9Icub0a-179" value="Ratio" style="edgeLabel;html=1;align=center;verticalAlign=middle;resizable=0;points=[];" vertex="1" connectable="0" parent="qQ-AOpVeRItCW9Icub0a-178">
          <mxGeometry x="-0.4103" y="-1" relative="1" as="geometry">
            <mxPoint as="offset" />
          </mxGeometry>
        </mxCell>
        <mxCell id="qQ-AOpVeRItCW9Icub0a-180" value="Production" style="endArrow=classic;html=1;rounded=0;exitX=0.001;exitY=0.776;exitDx=0;exitDy=0;exitPerimeter=0;entryX=0.5;entryY=0.5;entryDx=0;entryDy=40;entryPerimeter=0;" edge="1" parent="1" source="qQ-AOpVeRItCW9Icub0a-156" target="qQ-AOpVeRItCW9Icub0a-175">
          <mxGeometry width="50" height="50" relative="1" as="geometry">
            <mxPoint x="330" y="790" as="sourcePoint" />
            <mxPoint x="380" y="740" as="targetPoint" />
          </mxGeometry>
        </mxCell>
        <mxCell id="qQ-AOpVeRItCW9Icub0a-182" value="Contacting&lt;br&gt;Hiaring Agencies" style="html=1;dashed=0;whiteSpace=wrap;shape=mxgraph.dfd.start" vertex="1" parent="1">
          <mxGeometry x="1330" y="179.44" width="150" height="80" as="geometry" />
        </mxCell>
        <mxCell id="qQ-AOpVeRItCW9Icub0a-183" value="Hiring Agency" style="html=1;dashed=0;whiteSpace=wrap;" vertex="1" parent="1">
          <mxGeometry x="1355" y="29.439999999999998" width="100" height="50" as="geometry" />
        </mxCell>
        <mxCell id="qQ-AOpVeRItCW9Icub0a-184" value="" style="endArrow=classic;html=1;rounded=0;exitX=0.5;exitY=0.5;exitDx=0;exitDy=-40;exitPerimeter=0;entryX=0.5;entryY=1;entryDx=0;entryDy=0;" edge="1" parent="1" source="qQ-AOpVeRItCW9Icub0a-182" target="qQ-AOpVeRItCW9Icub0a-183">
          <mxGeometry width="50" height="50" relative="1" as="geometry">
            <mxPoint x="1395" y="309.44" as="sourcePoint" />
            <mxPoint x="1445" y="259.44" as="targetPoint" />
          </mxGeometry>
        </mxCell>
        <mxCell id="qQ-AOpVeRItCW9Icub0a-188" value="Request" style="edgeLabel;html=1;align=center;verticalAlign=middle;resizable=0;points=[];" vertex="1" connectable="0" parent="qQ-AOpVeRItCW9Icub0a-184">
          <mxGeometry x="0.1543" y="-2" relative="1" as="geometry">
            <mxPoint as="offset" />
          </mxGeometry>
        </mxCell>
        <mxCell id="qQ-AOpVeRItCW9Icub0a-185" value="" style="endArrow=classic;html=1;rounded=0;exitX=0.5;exitY=0;exitDx=0;exitDy=0;entryX=0.5;entryY=0.5;entryDx=0;entryDy=40;entryPerimeter=0;" edge="1" parent="1" source="qQ-AOpVeRItCW9Icub0a-87" target="qQ-AOpVeRItCW9Icub0a-182">
          <mxGeometry width="50" height="50" relative="1" as="geometry">
            <mxPoint x="1395" y="309.44" as="sourcePoint" />
            <mxPoint x="1445" y="259.44" as="targetPoint" />
          </mxGeometry>
        </mxCell>
        <mxCell id="qQ-AOpVeRItCW9Icub0a-189" value="Request" style="edgeLabel;html=1;align=center;verticalAlign=middle;resizable=0;points=[];" vertex="1" connectable="0" parent="qQ-AOpVeRItCW9Icub0a-185">
          <mxGeometry x="0.2286" y="-2" relative="1" as="geometry">
            <mxPoint as="offset" />
          </mxGeometry>
        </mxCell>
        <mxCell id="qQ-AOpVeRItCW9Icub0a-186" value="" style="endArrow=classic;html=1;rounded=0;exitX=1;exitY=1;exitDx=0;exitDy=0;entryX=0.802;entryY=0.029;entryDx=0;entryDy=0;entryPerimeter=0;" edge="1" parent="1" source="qQ-AOpVeRItCW9Icub0a-183" target="qQ-AOpVeRItCW9Icub0a-182">
          <mxGeometry width="50" height="50" relative="1" as="geometry">
            <mxPoint x="1395" y="309.44" as="sourcePoint" />
            <mxPoint x="1445" y="259.44" as="targetPoint" />
          </mxGeometry>
        </mxCell>
        <mxCell id="qQ-AOpVeRItCW9Icub0a-190" value="Confirmation" style="edgeLabel;html=1;align=center;verticalAlign=middle;resizable=0;points=[];" vertex="1" connectable="0" parent="qQ-AOpVeRItCW9Icub0a-186">
          <mxGeometry x="0.4693" y="-1" relative="1" as="geometry">
            <mxPoint as="offset" />
          </mxGeometry>
        </mxCell>
        <mxCell id="qQ-AOpVeRItCW9Icub0a-187" value="" style="endArrow=classic;html=1;rounded=0;exitX=0.683;exitY=1.029;exitDx=0;exitDy=0;exitPerimeter=0;entryX=0.75;entryY=0;entryDx=0;entryDy=0;" edge="1" parent="1" source="qQ-AOpVeRItCW9Icub0a-182" target="qQ-AOpVeRItCW9Icub0a-87">
          <mxGeometry width="50" height="50" relative="1" as="geometry">
            <mxPoint x="1395" y="309.44" as="sourcePoint" />
            <mxPoint x="1445" y="259.44" as="targetPoint" />
          </mxGeometry>
        </mxCell>
        <mxCell id="qQ-AOpVeRItCW9Icub0a-191" value="Confirmation" style="edgeLabel;html=1;align=center;verticalAlign=middle;resizable=0;points=[];" vertex="1" connectable="0" parent="qQ-AOpVeRItCW9Icub0a-187">
          <mxGeometry x="0.2312" relative="1" as="geometry">
            <mxPoint as="offset" />
          </mxGeometry>
        </mxCell>
        <mxCell id="qQ-AOpVeRItCW9Icub0a-192" value="" style="endArrow=classic;html=1;rounded=0;exitX=0.25;exitY=0;exitDx=0;exitDy=0;entryX=0.272;entryY=1.036;entryDx=0;entryDy=0;entryPerimeter=0;" edge="1" parent="1" source="qQ-AOpVeRItCW9Icub0a-87" target="qQ-AOpVeRItCW9Icub0a-182">
          <mxGeometry width="50" height="50" relative="1" as="geometry">
            <mxPoint x="1305" y="289.44" as="sourcePoint" />
            <mxPoint x="1355" y="239.44" as="targetPoint" />
          </mxGeometry>
        </mxCell>
        <mxCell id="qQ-AOpVeRItCW9Icub0a-193" value="Company name" style="edgeLabel;html=1;align=center;verticalAlign=middle;resizable=0;points=[];" vertex="1" connectable="0" parent="qQ-AOpVeRItCW9Icub0a-192">
          <mxGeometry x="-0.1953" y="-1" relative="1" as="geometry">
            <mxPoint as="offset" />
          </mxGeometry>
        </mxCell>
        <mxCell id="qQ-AOpVeRItCW9Icub0a-194" value="5&lt;span style=&quot;white-space: pre;&quot;&gt;	&lt;/span&gt;External Company DataBase" style="html=1;dashed=0;whiteSpace=wrap;shape=mxgraph.dfd.dataStoreID;align=left;spacingLeft=3;points=[[0,0],[0.5,0],[1,0],[0,0.5],[1,0.5],[0,1],[0.5,1],[1,1]];" vertex="1" parent="1">
          <mxGeometry x="930" y="1015" width="190" height="30" as="geometry" />
        </mxCell>
        <mxCell id="qQ-AOpVeRItCW9Icub0a-195" value="" style="endArrow=classic;html=1;rounded=0;exitX=0;exitY=0.5;exitDx=0;exitDy=0;exitPerimeter=0;entryX=1;entryY=1;entryDx=0;entryDy=0;" edge="1" parent="1" source="qQ-AOpVeRItCW9Icub0a-182" target="qQ-AOpVeRItCW9Icub0a-208">
          <mxGeometry width="50" height="50" relative="1" as="geometry">
            <mxPoint x="815" y="69.44" as="sourcePoint" />
            <mxPoint x="-85" y="259.44" as="targetPoint" />
          </mxGeometry>
        </mxCell>
        <mxCell id="qQ-AOpVeRItCW9Icub0a-196" value="Company Name" style="edgeLabel;html=1;align=center;verticalAlign=middle;resizable=0;points=[];" vertex="1" connectable="0" parent="qQ-AOpVeRItCW9Icub0a-195">
          <mxGeometry x="0.3925" y="-3" relative="1" as="geometry">
            <mxPoint as="offset" />
          </mxGeometry>
        </mxCell>
        <mxCell id="qQ-AOpVeRItCW9Icub0a-197" value="" style="endArrow=classic;html=1;rounded=0;exitX=1;exitY=0;exitDx=0;exitDy=0;entryX=0.02;entryY=0.31;entryDx=0;entryDy=0;entryPerimeter=0;" edge="1" parent="1" source="qQ-AOpVeRItCW9Icub0a-208" target="qQ-AOpVeRItCW9Icub0a-182">
          <mxGeometry width="50" height="50" relative="1" as="geometry">
            <mxPoint x="1145" y="199.44" as="sourcePoint" />
            <mxPoint x="1195" y="149.44" as="targetPoint" />
          </mxGeometry>
        </mxCell>
        <mxCell id="qQ-AOpVeRItCW9Icub0a-198" value="External Company" style="edgeLabel;html=1;align=center;verticalAlign=middle;resizable=0;points=[];" vertex="1" connectable="0" parent="qQ-AOpVeRItCW9Icub0a-197">
          <mxGeometry x="-0.3385" y="2" relative="1" as="geometry">
            <mxPoint as="offset" />
          </mxGeometry>
        </mxCell>
        <mxCell id="qQ-AOpVeRItCW9Icub0a-200" value="" style="endArrow=classic;html=1;rounded=0;exitX=0;exitY=1;exitDx=0;exitDy=0;entryX=0.973;entryY=0.731;entryDx=0;entryDy=0;entryPerimeter=0;" edge="1" parent="1" source="qQ-AOpVeRItCW9Icub0a-9" target="qQ-AOpVeRItCW9Icub0a-7">
          <mxGeometry width="50" height="50" relative="1" as="geometry">
            <mxPoint x="1130" y="1195" as="sourcePoint" />
            <mxPoint x="1180" y="1145" as="targetPoint" />
          </mxGeometry>
        </mxCell>
        <mxCell id="qQ-AOpVeRItCW9Icub0a-201" value="Company Name" style="edgeLabel;html=1;align=center;verticalAlign=middle;resizable=0;points=[];" vertex="1" connectable="0" parent="qQ-AOpVeRItCW9Icub0a-200">
          <mxGeometry x="0.3262" relative="1" as="geometry">
            <mxPoint y="1" as="offset" />
          </mxGeometry>
        </mxCell>
        <mxCell id="qQ-AOpVeRItCW9Icub0a-202" value="" style="endArrow=classic;html=1;rounded=0;exitX=0.5;exitY=0.5;exitDx=0;exitDy=-40;exitPerimeter=0;entryX=0.373;entryY=1.1;entryDx=0;entryDy=0;entryPerimeter=0;" edge="1" parent="1" source="qQ-AOpVeRItCW9Icub0a-7" target="qQ-AOpVeRItCW9Icub0a-194">
          <mxGeometry width="50" height="50" relative="1" as="geometry">
            <mxPoint x="1170" y="915" as="sourcePoint" />
            <mxPoint x="1220" y="865" as="targetPoint" />
          </mxGeometry>
        </mxCell>
        <mxCell id="qQ-AOpVeRItCW9Icub0a-203" value="Company Name" style="edgeLabel;html=1;align=center;verticalAlign=middle;resizable=0;points=[];" vertex="1" connectable="0" parent="qQ-AOpVeRItCW9Icub0a-202">
          <mxGeometry x="0.3733" y="-1" relative="1" as="geometry">
            <mxPoint x="3" y="27" as="offset" />
          </mxGeometry>
        </mxCell>
        <mxCell id="qQ-AOpVeRItCW9Icub0a-204" value="" style="endArrow=classic;html=1;rounded=0;exitX=0;exitY=1;exitDx=0;exitDy=0;entryX=0.317;entryY=-0.004;entryDx=0;entryDy=0;entryPerimeter=0;" edge="1" parent="1" source="qQ-AOpVeRItCW9Icub0a-194" target="qQ-AOpVeRItCW9Icub0a-7">
          <mxGeometry width="50" height="50" relative="1" as="geometry">
            <mxPoint x="1170" y="915" as="sourcePoint" />
            <mxPoint x="1010" y="1135" as="targetPoint" />
          </mxGeometry>
        </mxCell>
        <mxCell id="qQ-AOpVeRItCW9Icub0a-205" value="External Company" style="edgeLabel;html=1;align=center;verticalAlign=middle;resizable=0;points=[];" vertex="1" connectable="0" parent="qQ-AOpVeRItCW9Icub0a-204">
          <mxGeometry x="-0.6496" y="-3" relative="1" as="geometry">
            <mxPoint x="8" y="17" as="offset" />
          </mxGeometry>
        </mxCell>
        <mxCell id="qQ-AOpVeRItCW9Icub0a-206" value="Transportation Management" style="html=1;dashed=0;whiteSpace=wrap;shape=mxgraph.dfd.start" vertex="1" parent="1">
          <mxGeometry x="920" y="1502.5" width="150" height="80" as="geometry" />
        </mxCell>
        <mxCell id="qQ-AOpVeRItCW9Icub0a-207" value="Transportation Department" style="html=1;dashed=0;whiteSpace=wrap;" vertex="1" parent="1">
          <mxGeometry x="1180" y="1517.5" width="100" height="50" as="geometry" />
        </mxCell>
        <mxCell id="qQ-AOpVeRItCW9Icub0a-208" value="5&lt;span style=&quot;white-space: pre;&quot;&gt;	&lt;/span&gt;External Company DataBase" style="html=1;dashed=0;whiteSpace=wrap;shape=mxgraph.dfd.dataStoreID;align=left;spacingLeft=3;points=[[0,0],[0.5,0],[1,0],[0,0.5],[1,0.5],[0,1],[0.5,1],[1,1]];" vertex="1" parent="1">
          <mxGeometry x="965" y="169.44" width="190" height="30" as="geometry" />
        </mxCell>
        <mxCell id="qQ-AOpVeRItCW9Icub0a-210" value="2&lt;span style=&quot;white-space: pre;&quot;&gt;	&lt;/span&gt;Employee DataBase" style="html=1;dashed=0;whiteSpace=wrap;shape=mxgraph.dfd.dataStoreID;align=left;spacingLeft=3;points=[[0,0],[0.5,0],[1,0],[0,0.5],[1,0.5],[0,1],[0.5,1],[1,1]];" vertex="1" parent="1">
          <mxGeometry x="735" y="585" width="150" height="30" as="geometry" />
        </mxCell>
        <mxCell id="qQ-AOpVeRItCW9Icub0a-211" value="2&lt;span style=&quot;white-space: pre;&quot;&gt;	&lt;/span&gt;Employee DataBase" style="html=1;dashed=0;whiteSpace=wrap;shape=mxgraph.dfd.dataStoreID;align=left;spacingLeft=3;points=[[0,0],[0.5,0],[1,0],[0,0.5],[1,0.5],[0,1],[0.5,1],[1,1]];" vertex="1" parent="1">
          <mxGeometry x="1480" y="965" width="150" height="30" as="geometry" />
        </mxCell>
        <mxCell id="qQ-AOpVeRItCW9Icub0a-212" value="1&lt;span style=&quot;white-space: pre;&quot;&gt;	&lt;/span&gt;Request DataBase" style="html=1;dashed=0;whiteSpace=wrap;shape=mxgraph.dfd.dataStoreID;align=left;spacingLeft=3;points=[[0,0],[0.5,0],[1,0],[0,0.5],[1,0.5],[0,1],[0.5,1],[1,1]];" vertex="1" parent="1">
          <mxGeometry x="985" y="249.44" width="190" height="30" as="geometry" />
        </mxCell>
        <mxCell id="qQ-AOpVeRItCW9Icub0a-213" value="" style="endArrow=classic;html=1;rounded=0;exitX=0.281;exitY=-0.039;exitDx=0;exitDy=0;exitPerimeter=0;entryX=0.5;entryY=1;entryDx=0;entryDy=0;" edge="1" parent="1" source="qQ-AOpVeRItCW9Icub0a-95" target="qQ-AOpVeRItCW9Icub0a-212">
          <mxGeometry width="50" height="50" relative="1" as="geometry">
            <mxPoint x="1135" y="289.44" as="sourcePoint" />
            <mxPoint x="1185" y="239.44" as="targetPoint" />
          </mxGeometry>
        </mxCell>
        <mxCell id="qQ-AOpVeRItCW9Icub0a-215" value="Request" style="edgeLabel;html=1;align=center;verticalAlign=middle;resizable=0;points=[];" vertex="1" connectable="0" parent="qQ-AOpVeRItCW9Icub0a-213">
          <mxGeometry x="0.3209" y="1" relative="1" as="geometry">
            <mxPoint as="offset" />
          </mxGeometry>
        </mxCell>
        <mxCell id="qQ-AOpVeRItCW9Icub0a-214" value="" style="endArrow=classic;html=1;rounded=0;exitX=0.78;exitY=1.095;exitDx=0;exitDy=0;exitPerimeter=0;entryX=0.5;entryY=0.5;entryDx=0;entryDy=-40;entryPerimeter=0;" edge="1" parent="1" source="qQ-AOpVeRItCW9Icub0a-212" target="qQ-AOpVeRItCW9Icub0a-95">
          <mxGeometry width="50" height="50" relative="1" as="geometry">
            <mxPoint x="1135" y="289.44" as="sourcePoint" />
            <mxPoint x="1185" y="239.44" as="targetPoint" />
          </mxGeometry>
        </mxCell>
        <mxCell id="qQ-AOpVeRItCW9Icub0a-216" value="Request" style="edgeLabel;html=1;align=center;verticalAlign=middle;resizable=0;points=[];" vertex="1" connectable="0" parent="qQ-AOpVeRItCW9Icub0a-214">
          <mxGeometry x="0.3189" y="-1" relative="1" as="geometry">
            <mxPoint x="-5" y="-15" as="offset" />
          </mxGeometry>
        </mxCell>
        <mxCell id="qQ-AOpVeRItCW9Icub0a-217" value="" style="endArrow=classic;html=1;rounded=0;exitX=0;exitY=0.25;exitDx=0;exitDy=0;entryX=0;entryY=0;entryDx=138.28;entryDy=11.720000000000002;entryPerimeter=0;" edge="1" parent="1" source="qQ-AOpVeRItCW9Icub0a-207" target="qQ-AOpVeRItCW9Icub0a-206">
          <mxGeometry width="50" height="50" relative="1" as="geometry">
            <mxPoint x="1230" y="1572.5" as="sourcePoint" />
            <mxPoint x="1280" y="1522.5" as="targetPoint" />
          </mxGeometry>
        </mxCell>
        <mxCell id="qQ-AOpVeRItCW9Icub0a-219" value="PickUp Time" style="edgeLabel;html=1;align=center;verticalAlign=middle;resizable=0;points=[];" vertex="1" connectable="0" parent="qQ-AOpVeRItCW9Icub0a-217">
          <mxGeometry x="0.3738" y="3" relative="1" as="geometry">
            <mxPoint as="offset" />
          </mxGeometry>
        </mxCell>
        <mxCell id="qQ-AOpVeRItCW9Icub0a-218" value="" style="endArrow=classic;html=1;rounded=0;exitX=0;exitY=0.75;exitDx=0;exitDy=0;" edge="1" parent="1" source="qQ-AOpVeRItCW9Icub0a-207" target="qQ-AOpVeRItCW9Icub0a-206">
          <mxGeometry width="50" height="50" relative="1" as="geometry">
            <mxPoint x="1230" y="1572.5" as="sourcePoint" />
            <mxPoint x="1280" y="1522.5" as="targetPoint" />
          </mxGeometry>
        </mxCell>
        <mxCell id="qQ-AOpVeRItCW9Icub0a-220" value="EmployeeID" style="edgeLabel;html=1;align=center;verticalAlign=middle;resizable=0;points=[];" vertex="1" connectable="0" parent="qQ-AOpVeRItCW9Icub0a-218">
          <mxGeometry x="0.2279" y="-3" relative="1" as="geometry">
            <mxPoint as="offset" />
          </mxGeometry>
        </mxCell>
        <mxCell id="qQ-AOpVeRItCW9Icub0a-221" value="Contacting Transportation Company" style="html=1;dashed=0;whiteSpace=wrap;shape=mxgraph.dfd.start" vertex="1" parent="1">
          <mxGeometry x="1155" y="1632.5" width="150" height="80" as="geometry" />
        </mxCell>
        <mxCell id="qQ-AOpVeRItCW9Icub0a-222" value="" style="endArrow=classic;html=1;rounded=0;exitX=0.75;exitY=1;exitDx=0;exitDy=0;entryX=0;entryY=0;entryDx=138.28;entryDy=11.720000000000002;entryPerimeter=0;" edge="1" parent="1" source="qQ-AOpVeRItCW9Icub0a-207" target="qQ-AOpVeRItCW9Icub0a-221">
          <mxGeometry width="50" height="50" relative="1" as="geometry">
            <mxPoint x="1180" y="1552.5" as="sourcePoint" />
            <mxPoint x="1230" y="1502.5" as="targetPoint" />
          </mxGeometry>
        </mxCell>
        <mxCell id="qQ-AOpVeRItCW9Icub0a-223" value="Company Name" style="edgeLabel;html=1;align=center;verticalAlign=middle;resizable=0;points=[];" vertex="1" connectable="0" parent="qQ-AOpVeRItCW9Icub0a-222">
          <mxGeometry x="-0.2362" y="-1" relative="1" as="geometry">
            <mxPoint as="offset" />
          </mxGeometry>
        </mxCell>
        <mxCell id="qQ-AOpVeRItCW9Icub0a-224" value="" style="endArrow=classic;html=1;rounded=0;exitX=0.25;exitY=1;exitDx=0;exitDy=0;entryX=0;entryY=0;entryDx=11.719999999999999;entryDy=11.720000000000002;entryPerimeter=0;" edge="1" parent="1" source="qQ-AOpVeRItCW9Icub0a-207" target="qQ-AOpVeRItCW9Icub0a-221">
          <mxGeometry width="50" height="50" relative="1" as="geometry">
            <mxPoint x="1180" y="1552.5" as="sourcePoint" />
            <mxPoint x="1150" y="1642.5" as="targetPoint" />
          </mxGeometry>
        </mxCell>
        <mxCell id="qQ-AOpVeRItCW9Icub0a-225" value="Request" style="edgeLabel;html=1;align=center;verticalAlign=middle;resizable=0;points=[];" vertex="1" connectable="0" parent="qQ-AOpVeRItCW9Icub0a-224">
          <mxGeometry x="-0.4635" relative="1" as="geometry">
            <mxPoint as="offset" />
          </mxGeometry>
        </mxCell>
        <mxCell id="qQ-AOpVeRItCW9Icub0a-226" value="1&lt;span style=&quot;white-space: pre;&quot;&gt;	&lt;/span&gt;Request DataBase" style="html=1;dashed=0;whiteSpace=wrap;shape=mxgraph.dfd.dataStoreID;align=left;spacingLeft=3;points=[[0,0],[0.5,0],[1,0],[0,0.5],[1,0.5],[0,1],[0.5,1],[1,1]];" vertex="1" parent="1">
          <mxGeometry x="960" y="1662.5" width="140" height="30" as="geometry" />
        </mxCell>
        <mxCell id="qQ-AOpVeRItCW9Icub0a-227" value="" style="endArrow=classic;html=1;rounded=0;exitX=0.027;exitY=0.256;exitDx=0;exitDy=0;exitPerimeter=0;entryX=1;entryY=0;entryDx=0;entryDy=0;" edge="1" parent="1" source="qQ-AOpVeRItCW9Icub0a-221" target="qQ-AOpVeRItCW9Icub0a-226">
          <mxGeometry width="50" height="50" relative="1" as="geometry">
            <mxPoint x="1240" y="1632.5" as="sourcePoint" />
            <mxPoint x="1290" y="1582.5" as="targetPoint" />
          </mxGeometry>
        </mxCell>
        <mxCell id="qQ-AOpVeRItCW9Icub0a-228" value="Request" style="edgeLabel;html=1;align=center;verticalAlign=middle;resizable=0;points=[];" vertex="1" connectable="0" parent="qQ-AOpVeRItCW9Icub0a-227">
          <mxGeometry x="0.3295" y="-1" relative="1" as="geometry">
            <mxPoint y="-16" as="offset" />
          </mxGeometry>
        </mxCell>
        <mxCell id="qQ-AOpVeRItCW9Icub0a-229" value="" style="endArrow=classic;html=1;rounded=0;exitX=1;exitY=1;exitDx=0;exitDy=0;entryX=0;entryY=0;entryDx=11.719999999999999;entryDy=68.28;entryPerimeter=0;" edge="1" parent="1" source="qQ-AOpVeRItCW9Icub0a-226" target="qQ-AOpVeRItCW9Icub0a-221">
          <mxGeometry width="50" height="50" relative="1" as="geometry">
            <mxPoint x="1240" y="1632.5" as="sourcePoint" />
            <mxPoint x="1290" y="1582.5" as="targetPoint" />
          </mxGeometry>
        </mxCell>
        <mxCell id="qQ-AOpVeRItCW9Icub0a-230" value="Request" style="edgeLabel;html=1;align=center;verticalAlign=middle;resizable=0;points=[];" vertex="1" connectable="0" parent="qQ-AOpVeRItCW9Icub0a-229">
          <mxGeometry x="-0.5244" y="-1" relative="1" as="geometry">
            <mxPoint x="4" y="12" as="offset" />
          </mxGeometry>
        </mxCell>
        <mxCell id="qQ-AOpVeRItCW9Icub0a-231" value="5&lt;span style=&quot;white-space: pre;&quot;&gt;	&lt;/span&gt;External Company DataBase" style="html=1;dashed=0;whiteSpace=wrap;shape=mxgraph.dfd.dataStoreID;align=left;spacingLeft=3;points=[[0,0],[0.5,0],[1,0],[0,0.5],[1,0.5],[0,1],[0.5,1],[1,1]];" vertex="1" parent="1">
          <mxGeometry x="935" y="1752.5" width="190" height="30" as="geometry" />
        </mxCell>
        <mxCell id="qQ-AOpVeRItCW9Icub0a-232" value="" style="endArrow=classic;html=1;rounded=0;entryX=1;entryY=0;entryDx=0;entryDy=0;" edge="1" parent="1" source="qQ-AOpVeRItCW9Icub0a-221" target="qQ-AOpVeRItCW9Icub0a-231">
          <mxGeometry width="50" height="50" relative="1" as="geometry">
            <mxPoint x="1120" y="1782.5" as="sourcePoint" />
            <mxPoint x="1170" y="1732.5" as="targetPoint" />
          </mxGeometry>
        </mxCell>
        <mxCell id="qQ-AOpVeRItCW9Icub0a-234" value="Company Name" style="edgeLabel;html=1;align=center;verticalAlign=middle;resizable=0;points=[];" vertex="1" connectable="0" parent="qQ-AOpVeRItCW9Icub0a-232">
          <mxGeometry x="0.3995" y="-2" relative="1" as="geometry">
            <mxPoint as="offset" />
          </mxGeometry>
        </mxCell>
        <mxCell id="qQ-AOpVeRItCW9Icub0a-233" value="" style="endArrow=classic;html=1;rounded=0;exitX=1;exitY=1;exitDx=0;exitDy=0;entryX=0.5;entryY=0.5;entryDx=0;entryDy=40;entryPerimeter=0;" edge="1" parent="1" source="qQ-AOpVeRItCW9Icub0a-231" target="qQ-AOpVeRItCW9Icub0a-221">
          <mxGeometry width="50" height="50" relative="1" as="geometry">
            <mxPoint x="1130" y="1782.5" as="sourcePoint" />
            <mxPoint x="1170" y="1732.5" as="targetPoint" />
          </mxGeometry>
        </mxCell>
        <mxCell id="qQ-AOpVeRItCW9Icub0a-235" value="External Company" style="edgeLabel;html=1;align=center;verticalAlign=middle;resizable=0;points=[];" vertex="1" connectable="0" parent="qQ-AOpVeRItCW9Icub0a-233">
          <mxGeometry x="-0.2818" relative="1" as="geometry">
            <mxPoint as="offset" />
          </mxGeometry>
        </mxCell>
        <mxCell id="qQ-AOpVeRItCW9Icub0a-236" value="Transportation Company" style="html=1;dashed=0;whiteSpace=wrap;" vertex="1" parent="1">
          <mxGeometry x="1200" y="1792.5" width="100" height="50" as="geometry" />
        </mxCell>
        <mxCell id="qQ-AOpVeRItCW9Icub0a-237" value="" style="endArrow=classic;html=1;rounded=0;exitX=0.524;exitY=1.013;exitDx=0;exitDy=0;exitPerimeter=0;entryX=0.3;entryY=0;entryDx=0;entryDy=0;entryPerimeter=0;" edge="1" parent="1" source="qQ-AOpVeRItCW9Icub0a-221" target="qQ-AOpVeRItCW9Icub0a-236">
          <mxGeometry width="50" height="50" relative="1" as="geometry">
            <mxPoint x="1240" y="1802.5" as="sourcePoint" />
            <mxPoint x="1290" y="1752.5" as="targetPoint" />
          </mxGeometry>
        </mxCell>
        <mxCell id="qQ-AOpVeRItCW9Icub0a-238" value="Request" style="edgeLabel;html=1;align=center;verticalAlign=middle;resizable=0;points=[];" vertex="1" connectable="0" parent="qQ-AOpVeRItCW9Icub0a-237">
          <mxGeometry x="0.3417" y="-2" relative="1" as="geometry">
            <mxPoint as="offset" />
          </mxGeometry>
        </mxCell>
        <mxCell id="qQ-AOpVeRItCW9Icub0a-239" value="" style="endArrow=classic;html=1;rounded=0;entryX=0.759;entryY=1.031;entryDx=0;entryDy=0;entryPerimeter=0;exitX=0.75;exitY=0;exitDx=0;exitDy=0;" edge="1" parent="1" source="qQ-AOpVeRItCW9Icub0a-236" target="qQ-AOpVeRItCW9Icub0a-221">
          <mxGeometry width="50" height="50" relative="1" as="geometry">
            <mxPoint x="1240" y="1802.5" as="sourcePoint" />
            <mxPoint x="1290" y="1752.5" as="targetPoint" />
          </mxGeometry>
        </mxCell>
        <mxCell id="qQ-AOpVeRItCW9Icub0a-240" value="Validation" style="edgeLabel;html=1;align=center;verticalAlign=middle;resizable=0;points=[];" vertex="1" connectable="0" parent="qQ-AOpVeRItCW9Icub0a-239">
          <mxGeometry x="0.3134" y="1" relative="1" as="geometry">
            <mxPoint as="offset" />
          </mxGeometry>
        </mxCell>
        <mxCell id="qQ-AOpVeRItCW9Icub0a-241" value="" style="endArrow=classic;html=1;rounded=0;exitX=0.477;exitY=0.007;exitDx=0;exitDy=0;exitPerimeter=0;entryX=0.5;entryY=1;entryDx=0;entryDy=0;" edge="1" parent="1" source="qQ-AOpVeRItCW9Icub0a-221" target="qQ-AOpVeRItCW9Icub0a-207">
          <mxGeometry width="50" height="50" relative="1" as="geometry">
            <mxPoint x="1090" y="1562.5" as="sourcePoint" />
            <mxPoint x="1140" y="1512.5" as="targetPoint" />
          </mxGeometry>
        </mxCell>
        <mxCell id="qQ-AOpVeRItCW9Icub0a-242" value="Validation" style="edgeLabel;html=1;align=center;verticalAlign=middle;resizable=0;points=[];" vertex="1" connectable="0" parent="qQ-AOpVeRItCW9Icub0a-241">
          <mxGeometry x="-0.4163" y="-2" relative="1" as="geometry">
            <mxPoint as="offset" />
          </mxGeometry>
        </mxCell>
        <mxCell id="qQ-AOpVeRItCW9Icub0a-243" value="2&lt;span style=&quot;white-space: pre;&quot;&gt;	&lt;/span&gt;Employee DataBase" style="html=1;dashed=0;whiteSpace=wrap;shape=mxgraph.dfd.dataStoreID;align=left;spacingLeft=3;points=[[0,0],[0.5,0],[1,0],[0,0.5],[1,0.5],[0,1],[0.5,1],[1,1]];" vertex="1" parent="1">
          <mxGeometry x="640" y="1415" width="150" height="30" as="geometry" />
        </mxCell>
        <mxCell id="qQ-AOpVeRItCW9Icub0a-244" value="" style="endArrow=classic;html=1;rounded=0;exitX=0;exitY=0;exitDx=11.719999999999999;exitDy=11.720000000000002;exitPerimeter=0;entryX=1;entryY=0;entryDx=0;entryDy=0;" edge="1" parent="1" source="qQ-AOpVeRItCW9Icub0a-206" target="qQ-AOpVeRItCW9Icub0a-243">
          <mxGeometry width="50" height="50" relative="1" as="geometry">
            <mxPoint x="840" y="1592.5" as="sourcePoint" />
            <mxPoint x="890" y="1542.5" as="targetPoint" />
          </mxGeometry>
        </mxCell>
        <mxCell id="qQ-AOpVeRItCW9Icub0a-245" value="Task" style="edgeLabel;html=1;align=center;verticalAlign=middle;resizable=0;points=[];" vertex="1" connectable="0" parent="qQ-AOpVeRItCW9Icub0a-244">
          <mxGeometry x="0.2261" relative="1" as="geometry">
            <mxPoint as="offset" />
          </mxGeometry>
        </mxCell>
        <mxCell id="qQ-AOpVeRItCW9Icub0a-246" value="" style="endArrow=classic;html=1;rounded=0;exitX=0;exitY=0.5;exitDx=0;exitDy=0;exitPerimeter=0;entryX=1;entryY=1;entryDx=0;entryDy=0;" edge="1" parent="1" source="qQ-AOpVeRItCW9Icub0a-206" target="qQ-AOpVeRItCW9Icub0a-243">
          <mxGeometry width="50" height="50" relative="1" as="geometry">
            <mxPoint x="840" y="1592.5" as="sourcePoint" />
            <mxPoint x="890" y="1542.5" as="targetPoint" />
          </mxGeometry>
        </mxCell>
        <mxCell id="qQ-AOpVeRItCW9Icub0a-247" value="EmployeeID" style="edgeLabel;html=1;align=center;verticalAlign=middle;resizable=0;points=[];" vertex="1" connectable="0" parent="qQ-AOpVeRItCW9Icub0a-246">
          <mxGeometry x="0.2974" y="2" relative="1" as="geometry">
            <mxPoint as="offset" />
          </mxGeometry>
        </mxCell>
        <mxCell id="qQ-AOpVeRItCW9Icub0a-248" value="Insurance Department" style="html=1;dashed=0;whiteSpace=wrap;" vertex="1" parent="1">
          <mxGeometry x="1580" y="1285" width="100" height="50" as="geometry" />
        </mxCell>
        <mxCell id="qQ-AOpVeRItCW9Icub0a-250" value="Contacting Insurance Company" style="html=1;dashed=0;whiteSpace=wrap;shape=mxgraph.dfd.start" vertex="1" parent="1">
          <mxGeometry x="1620" y="1405" width="150" height="80" as="geometry" />
        </mxCell>
        <mxCell id="qQ-AOpVeRItCW9Icub0a-251" value="1&lt;span style=&quot;white-space: pre;&quot;&gt;	&lt;/span&gt;Request DataBase" style="html=1;dashed=0;whiteSpace=wrap;shape=mxgraph.dfd.dataStoreID;align=left;spacingLeft=3;points=[[0,0],[0.5,0],[1,0],[0,0.5],[1,0.5],[0,1],[0.5,1],[1,1]];" vertex="1" parent="1">
          <mxGeometry x="1340" y="1430" width="140" height="30" as="geometry" />
        </mxCell>
        <mxCell id="qQ-AOpVeRItCW9Icub0a-252" value="" style="endArrow=classic;html=1;rounded=0;exitX=0.027;exitY=0.256;exitDx=0;exitDy=0;exitPerimeter=0;entryX=1;entryY=0;entryDx=0;entryDy=0;" edge="1" source="qQ-AOpVeRItCW9Icub0a-250" target="qQ-AOpVeRItCW9Icub0a-251" parent="1">
          <mxGeometry width="50" height="50" relative="1" as="geometry">
            <mxPoint x="1705" y="1405" as="sourcePoint" />
            <mxPoint x="1755" y="1355" as="targetPoint" />
          </mxGeometry>
        </mxCell>
        <mxCell id="qQ-AOpVeRItCW9Icub0a-253" value="Request" style="edgeLabel;html=1;align=center;verticalAlign=middle;resizable=0;points=[];" vertex="1" connectable="0" parent="qQ-AOpVeRItCW9Icub0a-252">
          <mxGeometry x="0.3295" y="-1" relative="1" as="geometry">
            <mxPoint y="-16" as="offset" />
          </mxGeometry>
        </mxCell>
        <mxCell id="qQ-AOpVeRItCW9Icub0a-254" value="" style="endArrow=classic;html=1;rounded=0;exitX=1;exitY=1;exitDx=0;exitDy=0;entryX=0;entryY=0;entryDx=11.719999999999999;entryDy=68.28;entryPerimeter=0;" edge="1" source="qQ-AOpVeRItCW9Icub0a-251" target="qQ-AOpVeRItCW9Icub0a-250" parent="1">
          <mxGeometry width="50" height="50" relative="1" as="geometry">
            <mxPoint x="1705" y="1405" as="sourcePoint" />
            <mxPoint x="1755" y="1355" as="targetPoint" />
          </mxGeometry>
        </mxCell>
        <mxCell id="qQ-AOpVeRItCW9Icub0a-255" value="Request" style="edgeLabel;html=1;align=center;verticalAlign=middle;resizable=0;points=[];" vertex="1" connectable="0" parent="qQ-AOpVeRItCW9Icub0a-254">
          <mxGeometry x="-0.5244" y="-1" relative="1" as="geometry">
            <mxPoint x="4" y="12" as="offset" />
          </mxGeometry>
        </mxCell>
        <mxCell id="qQ-AOpVeRItCW9Icub0a-256" value="5&lt;span style=&quot;white-space: pre;&quot;&gt;	&lt;/span&gt;External Company DataBase" style="html=1;dashed=0;whiteSpace=wrap;shape=mxgraph.dfd.dataStoreID;align=left;spacingLeft=3;points=[[0,0],[0.5,0],[1,0],[0,0.5],[1,0.5],[0,1],[0.5,1],[1,1]];" vertex="1" parent="1">
          <mxGeometry x="1400" y="1525" width="190" height="30" as="geometry" />
        </mxCell>
        <mxCell id="qQ-AOpVeRItCW9Icub0a-257" value="" style="endArrow=classic;html=1;rounded=0;entryX=1;entryY=0;entryDx=0;entryDy=0;" edge="1" source="qQ-AOpVeRItCW9Icub0a-250" target="qQ-AOpVeRItCW9Icub0a-256" parent="1">
          <mxGeometry width="50" height="50" relative="1" as="geometry">
            <mxPoint x="1585" y="1555" as="sourcePoint" />
            <mxPoint x="1635" y="1505" as="targetPoint" />
          </mxGeometry>
        </mxCell>
        <mxCell id="qQ-AOpVeRItCW9Icub0a-258" value="Company Name" style="edgeLabel;html=1;align=center;verticalAlign=middle;resizable=0;points=[];" vertex="1" connectable="0" parent="qQ-AOpVeRItCW9Icub0a-257">
          <mxGeometry x="0.3995" y="-2" relative="1" as="geometry">
            <mxPoint as="offset" />
          </mxGeometry>
        </mxCell>
        <mxCell id="qQ-AOpVeRItCW9Icub0a-259" value="" style="endArrow=classic;html=1;rounded=0;exitX=1;exitY=1;exitDx=0;exitDy=0;entryX=0.5;entryY=0.5;entryDx=0;entryDy=40;entryPerimeter=0;" edge="1" source="qQ-AOpVeRItCW9Icub0a-256" target="qQ-AOpVeRItCW9Icub0a-250" parent="1">
          <mxGeometry width="50" height="50" relative="1" as="geometry">
            <mxPoint x="1595" y="1555" as="sourcePoint" />
            <mxPoint x="1635" y="1505" as="targetPoint" />
          </mxGeometry>
        </mxCell>
        <mxCell id="qQ-AOpVeRItCW9Icub0a-260" value="External Company" style="edgeLabel;html=1;align=center;verticalAlign=middle;resizable=0;points=[];" vertex="1" connectable="0" parent="qQ-AOpVeRItCW9Icub0a-259">
          <mxGeometry x="-0.2818" relative="1" as="geometry">
            <mxPoint as="offset" />
          </mxGeometry>
        </mxCell>
        <mxCell id="qQ-AOpVeRItCW9Icub0a-261" value="Insurance Company" style="html=1;dashed=0;whiteSpace=wrap;" vertex="1" parent="1">
          <mxGeometry x="1665" y="1565" width="100" height="50" as="geometry" />
        </mxCell>
        <mxCell id="qQ-AOpVeRItCW9Icub0a-262" value="" style="endArrow=classic;html=1;rounded=0;exitX=0.524;exitY=1.013;exitDx=0;exitDy=0;exitPerimeter=0;entryX=0.3;entryY=0;entryDx=0;entryDy=0;entryPerimeter=0;" edge="1" source="qQ-AOpVeRItCW9Icub0a-250" target="qQ-AOpVeRItCW9Icub0a-261" parent="1">
          <mxGeometry width="50" height="50" relative="1" as="geometry">
            <mxPoint x="1705" y="1575" as="sourcePoint" />
            <mxPoint x="1755" y="1525" as="targetPoint" />
          </mxGeometry>
        </mxCell>
        <mxCell id="qQ-AOpVeRItCW9Icub0a-263" value="Request" style="edgeLabel;html=1;align=center;verticalAlign=middle;resizable=0;points=[];" vertex="1" connectable="0" parent="qQ-AOpVeRItCW9Icub0a-262">
          <mxGeometry x="0.3417" y="-2" relative="1" as="geometry">
            <mxPoint as="offset" />
          </mxGeometry>
        </mxCell>
        <mxCell id="qQ-AOpVeRItCW9Icub0a-264" value="" style="endArrow=classic;html=1;rounded=0;entryX=0.759;entryY=1.031;entryDx=0;entryDy=0;entryPerimeter=0;exitX=0.75;exitY=0;exitDx=0;exitDy=0;" edge="1" source="qQ-AOpVeRItCW9Icub0a-261" target="qQ-AOpVeRItCW9Icub0a-250" parent="1">
          <mxGeometry width="50" height="50" relative="1" as="geometry">
            <mxPoint x="1705" y="1575" as="sourcePoint" />
            <mxPoint x="1755" y="1525" as="targetPoint" />
          </mxGeometry>
        </mxCell>
        <mxCell id="qQ-AOpVeRItCW9Icub0a-265" value="Validation" style="edgeLabel;html=1;align=center;verticalAlign=middle;resizable=0;points=[];" vertex="1" connectable="0" parent="qQ-AOpVeRItCW9Icub0a-264">
          <mxGeometry x="0.3134" y="1" relative="1" as="geometry">
            <mxPoint as="offset" />
          </mxGeometry>
        </mxCell>
        <mxCell id="qQ-AOpVeRItCW9Icub0a-267" value="" style="endArrow=classic;html=1;rounded=0;exitX=1;exitY=1;exitDx=0;exitDy=0;entryX=0.716;entryY=-0.011;entryDx=0;entryDy=0;entryPerimeter=0;" edge="1" parent="1" source="qQ-AOpVeRItCW9Icub0a-248" target="qQ-AOpVeRItCW9Icub0a-250">
          <mxGeometry width="50" height="50" relative="1" as="geometry">
            <mxPoint x="1630" y="1375" as="sourcePoint" />
            <mxPoint x="1680" y="1325" as="targetPoint" />
          </mxGeometry>
        </mxCell>
        <mxCell id="qQ-AOpVeRItCW9Icub0a-268" value="Request" style="edgeLabel;html=1;align=center;verticalAlign=middle;resizable=0;points=[];" vertex="1" connectable="0" parent="qQ-AOpVeRItCW9Icub0a-267">
          <mxGeometry x="-0.2746" relative="1" as="geometry">
            <mxPoint as="offset" />
          </mxGeometry>
        </mxCell>
        <mxCell id="qQ-AOpVeRItCW9Icub0a-269" value="" style="endArrow=classic;html=1;rounded=0;entryX=0.645;entryY=1.057;entryDx=0;entryDy=0;entryPerimeter=0;exitX=0.324;exitY=-0.017;exitDx=0;exitDy=0;exitPerimeter=0;" edge="1" parent="1" source="qQ-AOpVeRItCW9Icub0a-250" target="qQ-AOpVeRItCW9Icub0a-248">
          <mxGeometry width="50" height="50" relative="1" as="geometry">
            <mxPoint x="1570" y="1455" as="sourcePoint" />
            <mxPoint x="1620" y="1405" as="targetPoint" />
          </mxGeometry>
        </mxCell>
        <mxCell id="qQ-AOpVeRItCW9Icub0a-270" value="Validation" style="edgeLabel;html=1;align=center;verticalAlign=middle;resizable=0;points=[];" vertex="1" connectable="0" parent="qQ-AOpVeRItCW9Icub0a-269">
          <mxGeometry x="-0.4892" relative="1" as="geometry">
            <mxPoint as="offset" />
          </mxGeometry>
        </mxCell>
        <mxCell id="qQ-AOpVeRItCW9Icub0a-271" value="" style="endArrow=classic;html=1;rounded=0;exitX=0;exitY=0.5;exitDx=0;exitDy=0;exitPerimeter=0;" edge="1" parent="1" source="qQ-AOpVeRItCW9Icub0a-250">
          <mxGeometry width="50" height="50" relative="1" as="geometry">
            <mxPoint x="1570" y="1545" as="sourcePoint" />
            <mxPoint x="1480" y="1455" as="targetPoint" />
          </mxGeometry>
        </mxCell>
        <mxCell id="qQ-AOpVeRItCW9Icub0a-272" value="Validation" style="edgeLabel;html=1;align=center;verticalAlign=middle;resizable=0;points=[];" vertex="1" connectable="0" parent="qQ-AOpVeRItCW9Icub0a-271">
          <mxGeometry x="0.4727" relative="1" as="geometry">
            <mxPoint x="21" y="1" as="offset" />
          </mxGeometry>
        </mxCell>
        <mxCell id="qQ-AOpVeRItCW9Icub0a-273" value="" style="endArrow=classic;html=1;rounded=0;exitX=0.025;exitY=0.665;exitDx=0;exitDy=0;exitPerimeter=0;entryX=1;entryY=0;entryDx=0;entryDy=0;" edge="1" parent="1" source="qQ-AOpVeRItCW9Icub0a-182" target="qQ-AOpVeRItCW9Icub0a-212">
          <mxGeometry width="50" height="50" relative="1" as="geometry">
            <mxPoint x="1315" y="149.44" as="sourcePoint" />
            <mxPoint x="1365" y="99.44" as="targetPoint" />
          </mxGeometry>
        </mxCell>
        <mxCell id="qQ-AOpVeRItCW9Icub0a-274" value="Validation" style="edgeLabel;html=1;align=center;verticalAlign=middle;resizable=0;points=[];" vertex="1" connectable="0" parent="qQ-AOpVeRItCW9Icub0a-273">
          <mxGeometry x="0.5089" y="-2" relative="1" as="geometry">
            <mxPoint as="offset" />
          </mxGeometry>
        </mxCell>
        <mxCell id="qQ-AOpVeRItCW9Icub0a-275" value="" style="endArrow=classic;html=1;rounded=0;exitX=0;exitY=0;exitDx=11.719999999999999;exitDy=68.28;exitPerimeter=0;entryX=1;entryY=0.5;entryDx=0;entryDy=0;" edge="1" parent="1" source="qQ-AOpVeRItCW9Icub0a-182" target="qQ-AOpVeRItCW9Icub0a-212">
          <mxGeometry width="50" height="50" relative="1" as="geometry">
            <mxPoint x="1315" y="149.44" as="sourcePoint" />
            <mxPoint x="1365" y="99.44" as="targetPoint" />
          </mxGeometry>
        </mxCell>
        <mxCell id="qQ-AOpVeRItCW9Icub0a-276" value="RequestID" style="edgeLabel;html=1;align=center;verticalAlign=middle;resizable=0;points=[];" vertex="1" connectable="0" parent="qQ-AOpVeRItCW9Icub0a-275">
          <mxGeometry x="0.4722" y="-1" relative="1" as="geometry">
            <mxPoint as="offset" />
          </mxGeometry>
        </mxCell>
        <mxCell id="qQ-AOpVeRItCW9Icub0a-277" value="" style="endArrow=classic;html=1;rounded=0;exitX=0.007;exitY=0.377;exitDx=0;exitDy=0;exitPerimeter=0;" edge="1" parent="1" source="qQ-AOpVeRItCW9Icub0a-250" target="qQ-AOpVeRItCW9Icub0a-251">
          <mxGeometry width="50" height="50" relative="1" as="geometry">
            <mxPoint x="1570" y="1485" as="sourcePoint" />
            <mxPoint x="1620" y="1435" as="targetPoint" />
          </mxGeometry>
        </mxCell>
        <mxCell id="qQ-AOpVeRItCW9Icub0a-278" value="RequestID" style="edgeLabel;html=1;align=center;verticalAlign=middle;resizable=0;points=[];" vertex="1" connectable="0" parent="qQ-AOpVeRItCW9Icub0a-277">
          <mxGeometry x="0.2248" relative="1" as="geometry">
            <mxPoint x="23" y="-4" as="offset" />
          </mxGeometry>
        </mxCell>
        <mxCell id="qQ-AOpVeRItCW9Icub0a-279" value="Manage Employee Insurance" style="html=1;dashed=0;whiteSpace=wrap;shape=mxgraph.dfd.start" vertex="1" parent="1">
          <mxGeometry x="1555" y="1135" width="150" height="80" as="geometry" />
        </mxCell>
        <mxCell id="qQ-AOpVeRItCW9Icub0a-280" value="" style="endArrow=classic;html=1;rounded=0;exitX=0.75;exitY=0;exitDx=0;exitDy=0;entryX=0.674;entryY=1.041;entryDx=0;entryDy=0;entryPerimeter=0;" edge="1" parent="1" source="qQ-AOpVeRItCW9Icub0a-248" target="qQ-AOpVeRItCW9Icub0a-279">
          <mxGeometry width="50" height="50" relative="1" as="geometry">
            <mxPoint x="1740" y="1265" as="sourcePoint" />
            <mxPoint x="1790" y="1215" as="targetPoint" />
          </mxGeometry>
        </mxCell>
        <mxCell id="qQ-AOpVeRItCW9Icub0a-281" value="Insurance" style="edgeLabel;html=1;align=center;verticalAlign=middle;resizable=0;points=[];" vertex="1" connectable="0" parent="qQ-AOpVeRItCW9Icub0a-280">
          <mxGeometry x="0.3461" y="-2" relative="1" as="geometry">
            <mxPoint as="offset" />
          </mxGeometry>
        </mxCell>
        <mxCell id="qQ-AOpVeRItCW9Icub0a-282" value="" style="endArrow=classic;html=1;rounded=0;exitX=0.25;exitY=0;exitDx=0;exitDy=0;entryX=0.371;entryY=1.003;entryDx=0;entryDy=0;entryPerimeter=0;" edge="1" parent="1" source="qQ-AOpVeRItCW9Icub0a-248" target="qQ-AOpVeRItCW9Icub0a-279">
          <mxGeometry width="50" height="50" relative="1" as="geometry">
            <mxPoint x="1790" y="1215" as="sourcePoint" />
            <mxPoint x="1740" y="1265" as="targetPoint" />
          </mxGeometry>
        </mxCell>
        <mxCell id="qQ-AOpVeRItCW9Icub0a-283" value="EmployeeID" style="edgeLabel;html=1;align=center;verticalAlign=middle;resizable=0;points=[];" vertex="1" connectable="0" parent="qQ-AOpVeRItCW9Icub0a-282">
          <mxGeometry x="0.4117" y="-1" relative="1" as="geometry">
            <mxPoint y="29" as="offset" />
          </mxGeometry>
        </mxCell>
        <mxCell id="qQ-AOpVeRItCW9Icub0a-284" value="" style="endArrow=classic;html=1;rounded=0;exitX=1;exitY=0;exitDx=0;exitDy=0;entryX=0;entryY=0;entryDx=138.28;entryDy=68.28;entryPerimeter=0;" edge="1" parent="1" source="qQ-AOpVeRItCW9Icub0a-248" target="qQ-AOpVeRItCW9Icub0a-279">
          <mxGeometry width="50" height="50" relative="1" as="geometry">
            <mxPoint x="1860" y="1105" as="sourcePoint" />
            <mxPoint x="1910" y="1055" as="targetPoint" />
          </mxGeometry>
        </mxCell>
        <mxCell id="qQ-AOpVeRItCW9Icub0a-285" value="Dependant" style="edgeLabel;html=1;align=center;verticalAlign=middle;resizable=0;points=[];" vertex="1" connectable="0" parent="qQ-AOpVeRItCW9Icub0a-284">
          <mxGeometry x="-0.4755" y="-1" relative="1" as="geometry">
            <mxPoint as="offset" />
          </mxGeometry>
        </mxCell>
        <mxCell id="qQ-AOpVeRItCW9Icub0a-286" value="6&lt;span style=&quot;white-space: pre;&quot;&gt;	&lt;/span&gt;Insurance DataBase" style="html=1;dashed=0;whiteSpace=wrap;shape=mxgraph.dfd.dataStoreID;align=left;spacingLeft=3;points=[[0,0],[0.5,0],[1,0],[0,0.5],[1,0.5],[0,1],[0.5,1],[1,1]];" vertex="1" parent="1">
          <mxGeometry x="1560" y="1045" width="150" height="30" as="geometry" />
        </mxCell>
        <mxCell id="qQ-AOpVeRItCW9Icub0a-288" value="" style="endArrow=classic;html=1;rounded=0;entryX=0.165;entryY=1.054;entryDx=0;entryDy=0;entryPerimeter=0;" edge="1" parent="1" source="qQ-AOpVeRItCW9Icub0a-279" target="qQ-AOpVeRItCW9Icub0a-286">
          <mxGeometry width="50" height="50" relative="1" as="geometry">
            <mxPoint x="1660" y="1175" as="sourcePoint" />
            <mxPoint x="1710" y="1125" as="targetPoint" />
          </mxGeometry>
        </mxCell>
        <mxCell id="qQ-AOpVeRItCW9Icub0a-289" value="EmployeeID" style="edgeLabel;html=1;align=center;verticalAlign=middle;resizable=0;points=[];" vertex="1" connectable="0" parent="qQ-AOpVeRItCW9Icub0a-288">
          <mxGeometry x="0.1914" relative="1" as="geometry">
            <mxPoint as="offset" />
          </mxGeometry>
        </mxCell>
        <mxCell id="qQ-AOpVeRItCW9Icub0a-290" value="" style="endArrow=classic;html=1;rounded=0;exitX=0.5;exitY=0.5;exitDx=0;exitDy=-40;exitPerimeter=0;entryX=0.639;entryY=0.989;entryDx=0;entryDy=0;entryPerimeter=0;" edge="1" parent="1" source="qQ-AOpVeRItCW9Icub0a-279" target="qQ-AOpVeRItCW9Icub0a-286">
          <mxGeometry width="50" height="50" relative="1" as="geometry">
            <mxPoint x="1660" y="1175" as="sourcePoint" />
            <mxPoint x="1710" y="1125" as="targetPoint" />
          </mxGeometry>
        </mxCell>
        <mxCell id="qQ-AOpVeRItCW9Icub0a-291" value="Insurance" style="edgeLabel;html=1;align=center;verticalAlign=middle;resizable=0;points=[];" vertex="1" connectable="0" parent="qQ-AOpVeRItCW9Icub0a-290">
          <mxGeometry x="0.2659" y="1" relative="1" as="geometry">
            <mxPoint y="19" as="offset" />
          </mxGeometry>
        </mxCell>
        <mxCell id="qQ-AOpVeRItCW9Icub0a-292" value="" style="endArrow=classic;html=1;rounded=0;exitX=0.884;exitY=0.086;exitDx=0;exitDy=0;exitPerimeter=0;entryX=0.891;entryY=1.044;entryDx=0;entryDy=0;entryPerimeter=0;" edge="1" parent="1" source="qQ-AOpVeRItCW9Icub0a-279" target="qQ-AOpVeRItCW9Icub0a-286">
          <mxGeometry width="50" height="50" relative="1" as="geometry">
            <mxPoint x="1660" y="1175" as="sourcePoint" />
            <mxPoint x="1710" y="1125" as="targetPoint" />
          </mxGeometry>
        </mxCell>
        <mxCell id="qQ-AOpVeRItCW9Icub0a-293" value="Dependant" style="edgeLabel;html=1;align=center;verticalAlign=middle;resizable=0;points=[];" vertex="1" connectable="0" parent="qQ-AOpVeRItCW9Icub0a-292">
          <mxGeometry x="0.332" y="-1" relative="1" as="geometry">
            <mxPoint as="offset" />
          </mxGeometry>
        </mxCell>
        <mxCell id="qQ-AOpVeRItCW9Icub0a-294" value="Time Controle Management Department" style="html=1;dashed=0;whiteSpace=wrap;" vertex="1" parent="1">
          <mxGeometry x="1100" y="1345" width="100" height="50" as="geometry" />
        </mxCell>
        <mxCell id="qQ-AOpVeRItCW9Icub0a-295" value="Manage Employee Entry and Departure" style="html=1;dashed=0;whiteSpace=wrap;shape=mxgraph.dfd.start" vertex="1" parent="1">
          <mxGeometry x="1300" y="1315" width="150" height="80" as="geometry" />
        </mxCell>
        <mxCell id="qQ-AOpVeRItCW9Icub0a-296" value="" style="endArrow=classic;html=1;rounded=0;exitX=1;exitY=0.25;exitDx=0;exitDy=0;" edge="1" parent="1" source="qQ-AOpVeRItCW9Icub0a-294" target="qQ-AOpVeRItCW9Icub0a-295">
          <mxGeometry width="50" height="50" relative="1" as="geometry">
            <mxPoint x="1390" y="1425" as="sourcePoint" />
            <mxPoint x="1440" y="1375" as="targetPoint" />
          </mxGeometry>
        </mxCell>
        <mxCell id="qQ-AOpVeRItCW9Icub0a-297" value="EmployeeID" style="edgeLabel;html=1;align=center;verticalAlign=middle;resizable=0;points=[];" vertex="1" connectable="0" parent="qQ-AOpVeRItCW9Icub0a-296">
          <mxGeometry x="-0.3104" y="2" relative="1" as="geometry">
            <mxPoint as="offset" />
          </mxGeometry>
        </mxCell>
        <mxCell id="qQ-AOpVeRItCW9Icub0a-298" value="" style="endArrow=classic;html=1;rounded=0;exitX=0;exitY=0;exitDx=11.719999999999999;exitDy=68.28;exitPerimeter=0;entryX=1;entryY=0.75;entryDx=0;entryDy=0;" edge="1" parent="1" source="qQ-AOpVeRItCW9Icub0a-295" target="qQ-AOpVeRItCW9Icub0a-294">
          <mxGeometry width="50" height="50" relative="1" as="geometry">
            <mxPoint x="1390" y="1425" as="sourcePoint" />
            <mxPoint x="1440" y="1375" as="targetPoint" />
          </mxGeometry>
        </mxCell>
        <mxCell id="qQ-AOpVeRItCW9Icub0a-299" value="Employee Attendance" style="edgeLabel;html=1;align=center;verticalAlign=middle;resizable=0;points=[];" vertex="1" connectable="0" parent="qQ-AOpVeRItCW9Icub0a-298">
          <mxGeometry x="0.3216" y="1" relative="1" as="geometry">
            <mxPoint x="32" y="11" as="offset" />
          </mxGeometry>
        </mxCell>
        <mxCell id="qQ-AOpVeRItCW9Icub0a-300" value="2&lt;span style=&quot;white-space: pre;&quot;&gt;	&lt;/span&gt;Employee DataBase" style="html=1;dashed=0;whiteSpace=wrap;shape=mxgraph.dfd.dataStoreID;align=left;spacingLeft=3;points=[[0,0],[0.5,0],[1,0],[0,0.5],[1,0.5],[0,1],[0.5,1],[1,1]];" vertex="1" parent="1">
          <mxGeometry x="1300" y="1225" width="150" height="30" as="geometry" />
        </mxCell>
        <mxCell id="qQ-AOpVeRItCW9Icub0a-301" value="" style="endArrow=classic;html=1;rounded=0;exitX=0.288;exitY=-0.028;exitDx=0;exitDy=0;exitPerimeter=0;entryX=0.285;entryY=1.044;entryDx=0;entryDy=0;entryPerimeter=0;" edge="1" parent="1" source="qQ-AOpVeRItCW9Icub0a-295" target="qQ-AOpVeRItCW9Icub0a-300">
          <mxGeometry width="50" height="50" relative="1" as="geometry">
            <mxPoint x="1500" y="1305" as="sourcePoint" />
            <mxPoint x="1550" y="1255" as="targetPoint" />
          </mxGeometry>
        </mxCell>
        <mxCell id="qQ-AOpVeRItCW9Icub0a-302" value="EmployeeID" style="edgeLabel;html=1;align=center;verticalAlign=middle;resizable=0;points=[];" vertex="1" connectable="0" parent="qQ-AOpVeRItCW9Icub0a-301">
          <mxGeometry x="0.3693" y="-1" relative="1" as="geometry">
            <mxPoint as="offset" />
          </mxGeometry>
        </mxCell>
        <mxCell id="qQ-AOpVeRItCW9Icub0a-303" value="" style="endArrow=classic;html=1;rounded=0;exitX=0.632;exitY=1.03;exitDx=0;exitDy=0;exitPerimeter=0;entryX=0.647;entryY=-0.006;entryDx=0;entryDy=0;entryPerimeter=0;" edge="1" parent="1" source="qQ-AOpVeRItCW9Icub0a-300" target="qQ-AOpVeRItCW9Icub0a-295">
          <mxGeometry width="50" height="50" relative="1" as="geometry">
            <mxPoint x="1500" y="1305" as="sourcePoint" />
            <mxPoint x="1550" y="1255" as="targetPoint" />
          </mxGeometry>
        </mxCell>
        <mxCell id="qQ-AOpVeRItCW9Icub0a-304" value="Employee Attendance" style="edgeLabel;html=1;align=center;verticalAlign=middle;resizable=0;points=[];" vertex="1" connectable="0" parent="qQ-AOpVeRItCW9Icub0a-303">
          <mxGeometry x="-0.1979" y="-1" relative="1" as="geometry">
            <mxPoint x="45" y="16" as="offset" />
          </mxGeometry>
        </mxCell>
        <mxCell id="qQ-AOpVeRItCW9Icub0a-305" value="1&lt;span style=&quot;white-space: pre;&quot;&gt;	&lt;/span&gt;Request DataBase" style="html=1;dashed=0;whiteSpace=wrap;shape=mxgraph.dfd.dataStoreID;align=left;spacingLeft=3;points=[[0,0],[0.5,0],[1,0],[0,0.5],[1,0.5],[0,1],[0.5,1],[1,1]];" vertex="1" parent="1">
          <mxGeometry x="460" y="1290" width="140" height="30" as="geometry" />
        </mxCell>
      </root>
    </mxGraphModel>
  </diagram>
</mxfile>
